<?xml version="1.0" encoding="UTF-8" standalone="no"?>
<svg
   xmlns:dc="http://purl.org/dc/elements/1.1/"
   xmlns:cc="http://creativecommons.org/ns#"
   xmlns:rdf="http://www.w3.org/1999/02/22-rdf-syntax-ns#"
   xmlns:svg="http://www.w3.org/2000/svg"
   xmlns="http://www.w3.org/2000/svg"
   version="1.1"
   x="0px"
   y="0px"
   viewBox="151.9 249.8 811 674.29999"
   xml:space="preserve"
   id="FaustLogo2015ByDominikMaier"
   width="800"
   height="674.29999"><metadata
     id="metadata3450"><rdf:RDF><cc:Work
         rdf:about=""><dc:format>image/svg+xml</dc:format><dc:type
           rdf:resource="http://purl.org/dc/dcmitype/StillImage" /><dc:title></dc:title></cc:Work></rdf:RDF></metadata><defs
     id="defs3448" /><style
     type="text/css"
     id="style3338">
	.st0{fill-rule:evenodd;clip-rule:evenodd;fill:none;}
	.st1{display:none;enable-background:new    ;}
	.st2{display:inline;fill-rule:evenodd;clip-rule:evenodd;fill:#FF0000;stroke:#1D1D1B;stroke-width:10;stroke-miterlimit:10;}
	.st3{display:inline;fill-rule:evenodd;clip-rule:evenodd;fill:#FFDF8C;}
	.st4{fill-rule:evenodd;clip-rule:evenodd;stroke:#1D1D1B;stroke-width:8;stroke-miterlimit:10;}
	.st5{enable-background:new    ;}
	.st6{fill:#FF0000;}
	.st7{fill:none;stroke:#FF0000;stroke-width:7;stroke-miterlimit:10;}
	.st8{fill-rule:evenodd;clip-rule:evenodd;}
	.st9{display:none;}
	.st10{display:inline;}
	.st11{fill-rule:evenodd;clip-rule:evenodd;fill:#FF0000;}
	.st12{fill:none;stroke:#1D1D1B;stroke-width:8;stroke-miterlimit:10;}
	.st13{fill:none;stroke:#FF0000;stroke-width:8;stroke-miterlimit:10;}
	.st14{fill-rule:evenodd;clip-rule:evenodd;fill:#FF0000;}
	.st15{fill-rule:evenodd;clip-rule:evenodd;fill:#D50911;}
	.st16{fill-rule:evenodd;clip-rule:evenodd;fill:url(#Neues_Musterfeld_3);}
</style><pattern
     x="260.9"
     y="962.9"
     width="584.9"
     height="252.1"
     patternUnits="userSpaceOnUse"
     id="Neues_Musterfeld_3"
     viewBox="0 -252.1 584.9 252.1"><g
       id="g3341"><polygon
         class="st0"
         points="0,-252.1 584.9,-252.1 584.9,0 0,0   "
         id="polygon3343" /><rect
         x="0"
         y="-249.7"
         style="fill:none;"
         width="571.8"
         height="249.7"
         id="rect3345" /><text
         transform="matrix(1 0 0 1 4.882813e-004 -237.3252)"
         id="text3347"><tspan
           x="0"
           y="0"
           style="fill:#FF0000; font-family:'Consolas'; font-size:18px; letter-spacing:13;"
           id="tspan3349">0101010001000101010000010</tspan><tspan
           x="0"
           y="28"
           style="fill:#FF0000; font-family:'Consolas'; font-size:18px; letter-spacing:13;"
           id="tspan3351">1001101001000000100011001</tspan><tspan
           x="0"
           y="56"
           style="fill:#FF0000; font-family:'Consolas'; font-size:18px; letter-spacing:13;"
           id="tspan3353">0000010101010101010011010</tspan><tspan
           x="0"
           y="84"
           style="fill:#FF0000; font-family:'Consolas'; font-size:18px; letter-spacing:13;"
           id="tspan3355">1010000100000011010010111</tspan><tspan
           x="0"
           y="112"
           style="fill:#FF0000; font-family:'Consolas'; font-size:18px; letter-spacing:13;"
           id="tspan3357">0011001000000111010001101</tspan><tspan
           x="0"
           y="140"
           style="fill:#FF0000; font-family:'Consolas'; font-size:18px; letter-spacing:13;"
           id="tspan3359">0000110010100100000011001</tspan><tspan
           x="0"
           y="168"
           style="fill:#FF0000; font-family:'Consolas'; font-size:18px; letter-spacing:13;"
           id="tspan3361">1101110010011001010110000</tspan><tspan
           x="0"
           y="196"
           style="fill:#FF0000; font-family:'Consolas'; font-size:18px; letter-spacing:13;"
           id="tspan3363">1011101000110010101110011</tspan><tspan
           x="0"
           y="224"
           style="fill:#FF0000; font-family:'Consolas'; font-size:18px; letter-spacing:13;"
           id="tspan3365">0111010000101110001000000</tspan></text>
</g></pattern><g
     id="Star"
     class="st1"
     style="display:none;enable-background:new"><polygon
       id="Star_x5F_Main"
       class="st2"
       points="282.2,418.6 322.6,359.1 373.4,396.5 437.8,305.3 505.9,397.5 575,350.4 581.8,407.1 721.9,365.8 698.9,450.3 766.1,458 747.8,485.8 817,518.4 739.2,554.9 741.1,594.3 769.9,640.4 700.8,643.2 719,744 592.3,703.7 576,815.1 510.7,695.1 426.2,805.5 358.1,717.2 272.6,814.1 289,702.8 181.4,719.1 183.4,649 72,634.6 151.7,553 103.7,496.4 151.7,477.2 123.8,400.4 148.8,407.1 150.7,392.7 133.4,355.2 "
       style="clip-rule:evenodd;display:inline;fill:#FF0000;fill-rule:evenodd;stroke:#1d1d1b;stroke-width:10;stroke-miterlimit:10" /><polygon
       id="Star_x5F_Main_1_"
       class="st3"
       points="289.1,426 328.5,367.9 378.1,404.5 440.9,315.4 507.4,405.4 574.9,359.5 581.5,414.8 718.3,374.5 695.8,456.9 761.4,464.4 743.6,491.6 811,523.4 735.1,559 737,597.5 765.1,642.4 697.6,645.2 715.4,743.6 591.8,704.3 575.8,813 512.1,695.8 429.7,803.6 363.2,717.4 279.8,812 295.7,703.3 190.8,719.3 192.6,650.9 83.9,636.8 161.7,557.2 114.9,501.9 161.7,483.2 134.5,408.2 158.9,414.8 160.8,400.7 143.9,364.2 "
       style="clip-rule:evenodd;display:inline;fill:#ffdf8c;fill-rule:evenodd" /></g><g
     id="Ebene_7"><rect
       x="151.89999"
       y="249.8"
       class="st4"
       width="811"
       height="674.29999"
       id="rect3371"
       style="clip-rule:evenodd;fill-rule:evenodd;stroke:#1d1d1b;stroke-width:8;stroke-miterlimit:10" /></g><g
     id="Flag"
     class="st5"
     style="enable-background:new"><g
       id="Pole"><g
         id="g3375"><path
           class="st6"
           d="M 940.7,511.4 C 938,492.6 920.3,479.6 901.2,482.3 885.9,484.5 874.4,496 871.6,510 L 869.3,497.3 645,524.6 634.3,576.3 878,544.6 876.1,534.2 c 7,11.3 20.5,18.1 34.8,16 19.1,-2.6 32.5,-20 29.8,-38.8 z"
           id="path3377"
           style="fill:#ff0000" /></g><g
         id="g3379"><path
           class="st7"
           d="M 940.7,511.4 C 938,492.6 920.3,479.6 901.2,482.3 885.9,484.5 874.4,496 871.6,510 L 869.3,497.3 645,524.6 634.3,576.3 878,544.6 876.1,534.2 c 7,11.3 20.5,18.1 34.8,16 19.1,-2.6 32.5,-20 29.8,-38.8 z"
           id="path3381"
           style="fill:none;stroke:#ff0000;stroke-width:7;stroke-miterlimit:10" /></g></g><path
       id="Shine"
       class="st8"
       d="m 650.2,542.2 c 4.5,7 227.8,-28.7 250.5,-32.2 18.8,-2.9 31.7,20.7 26,4 -8,-23.6 -31.2,-18.6 -35,-11.2 -3.8,7.4 -239.9,32.6 -239.9,32.6 l -1.6,6.8"
       style="clip-rule:evenodd;fill-rule:evenodd" /><g
       id="Flag_x5F_Main_1_"
       class="st5"
       style="enable-background:new"><g
         id="Flag_x5F_Main"
         class="st9"
         style="display:none"><g
           class="st10"
           id="g3390"
           style="display:inline"><path
             class="st12"
             d="m 878.2,545 c 0.4,-0.4 6,-25.3 -6.2,-48.7 l -153.6,19.2 c 7.6,28.1 1.1,50.4 0,51.1 2.5,17.6 13.7,136.6 2.2,158.2 4,8.6 164.2,2.5 176.4,2.2 3.5,-28.5 -12.4,-151.4 -18.8,-182 z"
             id="path3392"
             style="fill:none;stroke:#1d1d1b;stroke-width:8;stroke-miterlimit:10" /></g></g><g
         id="Flag_x5F_Main_2_"><g
           id="g3395"><path
             class="st8"
             d="m 877.8,546.1 c 0.4,-0.4 6,-25.3 -6.2,-48.7 L 718,516.6 c 7.6,28.1 1.1,50.4 0,51.1 2.5,17.6 13.7,136.6 2.2,158.2 4,8.6 164.2,2.5 176.4,2.2 3.5,-28.5 -12.4,-151.4 -18.8,-182 z"
             id="path3397"
             style="clip-rule:evenodd;fill-rule:evenodd" /></g><g
           id="g3399"><path
             class="st13"
             d="m 877.8,546.1 c 0.4,-0.4 6,-25.3 -6.2,-48.7 L 718,516.6 c 7.6,28.1 1.1,50.4 0,51.1 2.5,17.6 13.7,136.6 2.2,158.2 4,8.6 164.2,2.5 176.4,2.2 3.5,-28.5 -12.4,-151.4 -18.8,-182 z"
             id="path3401"
             style="fill:none;stroke:#ff0000;stroke-width:8;stroke-miterlimit:10" /></g><g
           class="st10"
           id="g3386"
           style="display:inline"><path
             class="st16"
             d="m 877.8,546.1 c 0.4,-0.4 6,-25.3 -6.2,-48.7 L 718,516.6 c 7.6,28.1 1.1,50.4 0,51.1 2.5,17.6 13.7,136.6 2.2,158.2 4,8.6 164.2,2.5 176.4,2.2 3.5,-28.5 -12.4,-151.4 -18.8,-182 z"
             id="binaryoverlay"
             style="clip-rule:evenodd;fill:url(#Neues_Musterfeld_3);fill-rule:evenodd" /></g></g><g
         id="T"
         class="st5"
         style="enable-background:new"><g
           id="Upper_2_"><g
             id="g3405"><path
               class="st14"
               d="m 845.9,538.3 c -7.6,0 -95.5,14.1 -95.5,14.1 -0.2,3 2.8,12.7 2.2,39.4 19,0 19.7,0.2 102,-8 -0.1,0.1 -1.1,-45.5 -8.7,-45.5 z"
               id="path3407"
               style="clip-rule:evenodd;fill:#ff0000;fill-rule:evenodd" /></g></g><g
           id="Upper_4_" /><g
           id="Lower_2_"><g
             id="g3411"><path
               class="st14"
               d="m 821,568.8 c 0.1,-0.4 11.7,10 7,-13.4 l -54,10.9 c 2.7,26.2 7,9.7 7.2,7.9 0,0 0,-0.1 0,-0.1 0,0 0,0 0,0.1 13.3,114.2 8.3,119.4 7.5,119.5 2.3,0.1 46.3,2.7 47.9,-3.4 -3.4,-21.1 -13.1,-90.9 -15.6,-121.5 z m -32.4,125 c -0.1,0 -0.1,0 -0.1,0 0,0 0.1,0 0.1,0 z"
               id="path3413"
               style="clip-rule:evenodd;fill:#ff0000;fill-rule:evenodd" /></g></g><path
           class="st14"
           d="M 873.2,522.3"
           id="path3415"
           style="clip-rule:evenodd;fill:#ff0000;fill-rule:evenodd" /></g></g></g><g
     id="Fist_1_"><g
       id="BG"
       class="st9"
       style="display:none"><g
         class="st10"
         id="g3419"
         style="display:inline"><path
           class="st15"
           d="m 552.5,401.9 c -20,-15.7 -64.7,-39 -64.7,-39 l -50.9,33.6 c 0,0 -248.6,16.3 -251.5,134.4 5.8,116.2 0.8,62.7 33.6,132.5 94.8,12.4 171.5,27.4 208.4,48 30.1,16.8 28.8,40.8 28.8,40.8 0,0 247,35.3 168,-95.7 27.9,-168 44.3,-253.3 -71.7,-254.6 z"
           id="path3421"
           style="clip-rule:evenodd;fill:#d50911;fill-rule:evenodd" /></g></g><g
       id="BG_x5F_Numbers"><g
         id="g3424"><path
           class="st16"
           d="m 631.7,611.6 c 27.8,-168 31.7,-203.5 -83.5,-205.4 -26.9,-32.6 -59.5,-47 -59.5,-47 l -50.9,33.6 c 0,0 -248.6,16.3 -251.5,134.4 5.8,116.2 9.6,73.9 33.6,132.5 45.8,31.6 146.7,28.9 204.3,49.1 16,5.6 15.4,38 30.3,43 295.6,65.1 156.1,-97 177.2,-140.2 z"
           id="path3426"
           style="clip-rule:evenodd;fill:url(#Neues_Musterfeld_3);fill-rule:evenodd;visibility:hidden;opacity:0" /></g></g><g
       id="Letters"><path
         id="U"
         class="st14"
         d="m 473.9,470.7 c 0,0 -59,80.9 -32.8,151.2 14.7,16.9 32.1,-5 38.1,-8.2 -12.2,-62.8 42.5,-134.6 48.7,-140.7 6.2,-6.1 -54,-2.3 -54,-2.3 z"
         style="clip-rule:evenodd;fill:#ff0000;fill-rule:evenodd" /><path
         id="F"
         class="st14"
         d="m 313.6,507.9 -50.7,23.2 -1.6,34.3 40.6,-13.8 -5,25.9 -35.1,11.7 -2.4,86.4 42.3,3.6 c 0,0 -15.5,-65.4 -10.2,-80.1 5.3,-14.8 24.5,-75.2 24.5,-75.2 l -2.4,-16 z"
         style="clip-rule:evenodd;fill:#ff0000;fill-rule:evenodd" /><g
         id="S"><g
           id="g3432"><path
             class="st14"
             d="m 612.4,477.2 c -22,-1.5 -40.7,9.2 -41.7,23.9 -1,14.7 16,27.9 38,29.4 22,1.5 31.8,36.5 32.8,21.7 0.6,-8.1 10.3,-66.1 10.3,-66.1 0,0 -29.5,-8.3 -39.4,-8.9 z m -69,36.3 c 5.1,-37.2 -38.7,95.2 -22.3,72.6 16.4,-22.7 43.6,32.1 75.3,5.8 22.5,-34 -54.2,-41 -53,-78.4 z"
             id="path3434"
             style="clip-rule:evenodd;fill:#ff0000;fill-rule:evenodd" /></g></g><g
         id="A"><g
           id="g3437"><path
             class="st14"
             d="m 371.4,491.8 c 8.8,-13.1 -22,8.6 -22,8.6 0,0 -1.1,36.7 -6.7,44.3 -3.7,1.2 19.7,-5.9 19.7,-5.9 0,0 -3,-29.1 9,-47 z M 365,564 c 0,0 -3.5,1.2 -29.4,11.7 -12.1,29.5 -15.8,42.5 -2.8,104 29.1,27.3 43.1,8.5 43.1,8.5 L 365,564 Z"
             id="path3439"
             style="clip-rule:evenodd;fill:#ff0000;fill-rule:evenodd" /></g></g></g><g
       id="Fist_x5F_Main"><g
         id="g3442"><path
           class="st6"
           d="m 636.7,651.5 c -3.7,-23.2 -1.6,-13.1 0,-34.9 0,-0.4 0,-0.7 0,-1.1 -3,-59 83.9,-221.1 -84.2,-219.1 -2.4,0 -4.6,-0.9 -6.4,-2.4 -21.1,-19.1 -45,-39.3 -59.8,-39.3 -15.4,-0.1 -42.9,22.1 -56.2,33.6 -13.3,11.6 -113.1,21.1 -168.2,39.4 -55.2,18.3 -82.8,84.7 -85.4,108.6 -2.6,23.9 4.9,111.6 42,133.6 21.7,19.5 111,17.5 196.5,45.1 22.1,7.1 23.4,33.5 44.4,49.1 1.4,1 2.8,1.9 4.5,2.2 18.5,3.5 50.2,11.2 65.8,12.9 0.4,0 0.8,0.1 1.2,0 24,-0.4 170.1,-2.3 106.9,-124.8 -0.6,-0.9 -0.9,-1.9 -1.1,-2.9 z m -227.9,-116 c 4.7,-19.9 17.5,-36 24.8,-48.8 4.6,-8.2 -5,-17.1 -12.7,-11.8 -39.1,27.3 -30.6,153.7 -19.7,184.4 7.9,22.2 -28.8,27.7 -68.4,20.4 -1.3,-0.2 -2.5,-0.7 -3.5,-1.5 -66,-47.7 9.5,-129.7 1.6,-178.3 -1,-6.1 -8.6,-2.7 -14.4,1.4 -0.3,0.2 -0.6,0.4 -0.8,0.6 -11.8,10.9 -22.8,82.9 -27.6,97.6 -0.2,0.7 -0.4,1.4 -0.4,2.1 -5.9,72.6 -27.2,64 -53.6,57 -49.4,-13 -9.7,-112.4 -29.7,-100.8 -5.8,3.4 -13.3,-0.7 -13.4,-7.5 -0.9,-60.2 68.2,-133.2 153.9,-127.9 16.4,1 66.6,-12.7 88.7,-21.4 0.4,-0.2 0.8,-0.3 1.3,-0.4 45.6,-10.2 27.5,-71.5 108.2,11.5 1.9,1.9 4.6,2.9 7.3,2.7 20.5,-2.1 97.2,-15.2 92.4,77.1 0,0.4 -0.1,0.7 -0.1,1.1 -14.4,85.7 -19.4,109.1 -20.2,112.7 -0.1,0.4 -0.2,0.7 -0.3,1.1 -2.4,6.7 -27,69.6 -82,28 -0.2,-0.2 -0.4,-0.3 -0.6,-0.5 -22.2,-19.6 -18.4,-59.7 4.8,-119.3 4.2,-10.7 -10.9,-17.2 -15.7,-6.8 -12.5,27.1 -21.6,90.6 -27,127.3 -0.3,2 -1.2,3.8 -2.6,5.2 C 393.8,742.5 401.8,565.1 408.8,535.5 Z M 550.1,755 c -38.9,-2.9 -12.4,-22.9 -7.4,-32.3 -23.6,-60.4 -48.9,-35.9 -44.3,-34.1 59.4,64 -16.2,79.5 -45.7,42.1 -21.2,-69.6 59.8,-58.1 75,-58.1 15.2,0 73,3.8 93.5,-21.8 44.6,97.6 -36.5,99.1 -71.1,104.2 z"
           id="path3444"
           style="fill:#ff0000" /></g></g></g></svg>