<?xml version="1.0" standalone="no"?>
<!DOCTYPE svg PUBLIC "-//W3C//DTD SVG 1.1//EN" "http://www.w3.org/Graphics/SVG/1.1/DTD/svg11.dtd">
<svg width="100%" height="100%" viewBox="0 0 233334 129167" version="1.1" xmlns="http://www.w3.org/2000/svg" xmlns:xlink="http://www.w3.org/1999/xlink" xml:space="preserve" style="fill-rule:evenodd;clip-rule:evenodd;stroke-linejoin:round;stroke-miterlimit:1.41421;">
    <g transform="matrix(4.16667,0,0,4.16667,-0,-0)">
        <g transform="matrix(17.3611,1.7774e-22,1.7774e-22,17.3611,-1542.11,-3103.31)">
            <g id="Flag" transform="matrix(1,0,0,1,0,-250)">
                <g id="Pole">
                    <path id="path3377" d="M3286.67,1090C3275.42,1011.67 3201.67,957.5 3122.09,968.75C3058.34,977.917 3010.42,1025.83 2998.75,1084.17L2989.17,1031.25L2054.59,1145L2010,1360.42L3025.42,1228.33L3017.51,1185C3046.67,1232.08 3102.92,1260.42 3162.51,1251.67C3242.09,1240.83 3297.92,1168.33 3286.67,1090Z" style="fill:rgb(255,0,0);fill-rule:nonzero;"/>
                    <path id="path3381" d="M1997.07,1376.81L1992.69,1372.09L2042.42,1131.79L3001.06,1015.12L3003.95,1031.03L3004.27,1030.5L3004.66,1029.85L3005.06,1029.21L3005.46,1028.56L3005.86,1027.92L3006.27,1027.28L3006.68,1026.64L3007.09,1026.01L3007.51,1025.38L3007.92,1024.75L3008.35,1024.11L3008.77,1023.49L3009.2,1022.86L3009.63,1022.24L3010.06,1021.62L3010.5,1021L3010.94,1020.38L3011.38,1019.77L3011.82,1019.15L3012.27,1018.54L3012.72,1017.93L3013.17,1017.33L3013.63,1016.72L3014.09,1016.12L3014.55,1015.52L3015.02,1014.92L3015.49,1014.32L3015.95,1013.73L3016.43,1013.13L3016.91,1012.54L3017.39,1011.96L3017.87,1011.37L3018.35,1010.79L3018.84,1010.21L3019.33,1009.62L3019.83,1009.05L3020.32,1008.48L3020.82,1007.9L3021.32,1007.33L3021.83,1006.77L3022.33,1006.2L3022.84,1005.63L3023.36,1005.07L3023.87,1004.52L3024.39,1003.96L3024.91,1003.41L3025.43,1002.86L3025.96,1002.31L3026.49,1001.76L3027.02,1001.21L3027.56,1000.67L3028.09,1000.13L3028.63,999.598L3029.18,999.062L3029.72,998.529L3030.27,998.001L3030.82,997.473L3031.37,996.947L3031.93,996.426L3032.48,995.907L3033.04,995.389L3033.61,994.873L3034.18,994.361L3034.74,993.852L3035.31,993.345L3035.89,992.84L3036.47,992.337L3037.04,991.839L3037.62,991.342L3038.21,990.847L3038.79,990.357L3039.38,989.866L3039.97,989.38L3040.57,988.897L3041.16,988.417L3041.76,987.938L3042.36,987.462L3042.97,986.988L3043.57,986.518L3044.18,986.052L3044.79,985.586L3045.4,985.124L3046.02,984.664L3046.64,984.208L3047.26,983.755L3047.88,983.302L3048.51,982.855L3049.14,982.41L3049.77,981.967L3050.4,981.529L3051.03,981.092L3051.67,980.657L3052.31,980.225L3052.95,979.797L3053.6,979.371L3054.24,978.948L3054.89,978.53L3055.54,978.114L3056.2,977.699L3056.85,977.287L3057.51,976.88L3058.17,976.476L3058.83,976.075L3059.5,975.674L3060.16,975.278L3060.83,974.886L3061.5,974.496L3062.18,974.109L3062.85,973.726L3063.53,973.345L3064.21,972.966L3064.89,972.592L3065.58,972.22L3066.26,971.852L3066.95,971.487L3067.64,971.125L3068.34,970.765L3069.03,970.409L3069.73,970.056L3070.43,969.707L3071.13,969.361L3071.84,969.018L3072.54,968.677L3073.25,968.341L3073.96,968.007L3074.67,967.677L3075.39,967.349L3076.1,967.026L3076.82,966.705L3077.54,966.388L3078.26,966.074L3078.99,965.764L3079.71,965.456L3080.44,965.152L3081.17,964.851L3081.9,964.554L3082.64,964.26L3083.38,963.969L3084.11,963.682L3084.85,963.398L3085.59,963.118L3086.34,962.841L3087.09,962.567L3087.83,962.297L3088.58,962.031L3089.33,961.767L3090.09,961.507L3090.84,961.251L3091.6,960.998L3092.36,960.749L3093.12,960.503L3093.88,960.261L3094.64,960.023L3095.41,959.787L3096.18,959.556L3096.95,959.328L3097.72,959.103L3098.49,958.883L3099.27,958.666L3100.04,958.452L3100.82,958.242L3101.6,958.036L3102.39,957.833L3103.17,957.634L3103.96,957.438L3104.74,957.247L3105.53,957.059L3106.32,956.875L3107.11,956.694L3107.91,956.517L3108.7,956.344L3109.5,956.175L3110.3,956.009L3111.1,955.848L3111.9,955.69L3112.7,955.535L3113.51,955.385L3114.32,955.239L3115.12,955.096L3115.93,954.957L3116.75,954.822L3117.56,954.691L3118.37,954.563L3119.19,954.44L3120.03,954.317L3121.06,954.174L3122.08,954.039L3123.11,953.911L3124.12,953.789L3125.14,953.674L3126.16,953.565L3127.18,953.463L3128.2,953.367L3129.22,953.278L3130.24,953.195L3131.25,953.118L3132.27,953.048L3133.28,952.984L3134.3,952.927L3135.31,952.876L3136.32,952.831L3137.33,952.793L3138.34,952.76L3139.35,952.735L3140.36,952.715L3141.37,952.702L3142.38,952.694L3143.38,952.694L3144.39,952.699L3145.39,952.71L3146.39,952.728L3147.39,952.752L3148.39,952.782L3149.39,952.818L3150.39,952.86L3151.39,952.909L3152.38,952.963L3153.38,953.023L3154.37,953.09L3155.36,953.162L3156.35,953.241L3157.34,953.326L3158.33,953.416L3159.31,953.513L3160.3,953.615L3161.28,953.724L3162.26,953.838L3163.24,953.958L3164.22,954.084L3165.2,954.216L3166.17,954.354L3167.15,954.498L3168.12,954.647L3169.09,954.803L3170.06,954.964L3171.03,955.131L3171.99,955.303L3172.95,955.482L3173.92,955.666L3174.88,955.856L3175.84,956.051L3176.79,956.252L3177.75,956.459L3178.7,956.672L3179.65,956.89L3180.6,957.113L3181.55,957.343L3182.49,957.578L3183.43,957.818L3184.38,958.064L3185.32,958.316L3186.25,958.573L3187.19,958.836L3188.12,959.104L3189.05,959.377L3189.98,959.656L3190.91,959.94L3191.83,960.23L3192.75,960.525L3193.67,960.826L3194.59,961.132L3195.51,961.443L3196.42,961.76L3197.33,962.082L3198.24,962.409L3199.14,962.742L3200.05,963.08L3200.95,963.423L3201.85,963.771L3202.74,964.125L3203.64,964.484L3204.53,964.847L3205.42,965.216L3206.3,965.591L3207.19,965.97L3208.07,966.355L3208.95,966.744L3209.82,967.139L3210.69,967.539L3211.56,967.944L3212.43,968.353L3213.3,968.769L3214.16,969.189L3215.02,969.614L3215.88,970.044L3216.73,970.479L3217.58,970.918L3218.43,971.363L3219.27,971.813L3220.12,972.267L3220.96,972.727L3221.79,973.192L3222.63,973.661L3223.46,974.135L3224.28,974.613L3225.11,975.097L3225.93,975.587L3226.75,976.079L3227.56,976.577L3228.38,977.08L3229.19,977.588L3229.99,978.099L3230.79,978.616L3231.6,979.139L3232.39,979.665L3233.18,980.195L3233.97,980.731L3234.76,981.271L3235.54,981.817L3236.32,982.366L3237.1,982.92L3237.87,983.478L3238.64,984.04L3239.41,984.61L3240.17,985.182L3240.93,985.756L3241.69,986.337L3242.44,986.924L3243.19,987.515L3243.93,988.109L3244.68,988.707L3245.41,989.31L3246.15,989.918L3246.88,990.531L3247.61,991.147L3248.33,991.768L3249.05,992.391L3249.77,993.022L3250.48,993.656L3251.19,994.294L3251.89,994.935L3252.59,995.582L3253.29,996.233L3253.99,996.888L3254.68,997.547L3255.36,998.21L3256.04,998.877L3256.72,999.55L3257.39,1000.23L3258.06,1000.9L3258.73,1001.59L3260.05,1002.97L3262,1005.07L3263.28,1006.49L3264.54,1007.93L3265.16,1008.65L3266.4,1010.11L3267.62,1011.59L3268.22,1012.33L3268.82,1013.08L3269.41,1013.83L3270.59,1015.35L3271.17,1016.11L3271.74,1016.88L3272.32,1017.65L3272.88,1018.42L3273.45,1019.2L3274,1019.98L3274.56,1020.77L3275.11,1021.55L3275.65,1022.35L3276.19,1023.14L3276.73,1023.95L3277.26,1024.75L3278.82,1027.18L3279.33,1028L3280.33,1029.64L3280.83,1030.47L3281.32,1031.31L3281.81,1032.14L3282.77,1033.82L3283.71,1035.52L3284.17,1036.37L3284.62,1037.22L3285.08,1038.09L3285.96,1039.81L3286.4,1040.68L3286.83,1041.55L3287.26,1042.43L3287.68,1043.31L3288.09,1044.19L3288.5,1045.08L3288.9,1045.96L3289.3,1046.86L3289.7,1047.75L3290.09,1048.65L3290.85,1050.45L3291.59,1052.27L3291.95,1053.19L3292.3,1054.1L3292.65,1055.02L3293,1055.95L3293.34,1056.87L3294,1058.73L3294.32,1059.66L3294.64,1060.6L3294.95,1061.54L3295.25,1062.49L3295.55,1063.43L3296.13,1065.33L3296.41,1066.28L3296.69,1067.24L3296.96,1068.2L3297.22,1069.16L3297.48,1070.13L3297.74,1071.09L3297.98,1072.07L3298.46,1074.01L3298.69,1074.99L3298.91,1075.97L3299.12,1076.95L3299.34,1077.94L3299.74,1079.92L3299.93,1080.91L3300.12,1081.91L3300.3,1082.91L3300.64,1084.91L3300.8,1085.92L3300.95,1086.92L3301.1,1087.93L3301.38,1089.95L3301.51,1090.96L3301.63,1091.97L3301.85,1093.99L3302.05,1096.01L3302.14,1097.02L3302.22,1098.02L3302.29,1099.02L3302.36,1100.03L3302.42,1101.03L3302.48,1102.04L3302.53,1103.04L3302.61,1105.04L3302.64,1106.04L3302.68,1108.04L3302.69,1109.03L3302.69,1111.02L3302.68,1112.02L3302.66,1113.01L3302.64,1114L3302.61,1114.99L3302.58,1115.98L3302.54,1116.97L3302.49,1117.95L3302.44,1118.94L3302.38,1119.92L3302.31,1120.91L3302.24,1121.89L3302.16,1122.87L3302.08,1123.85L3301.99,1124.83L3301.89,1125.8L3301.79,1126.78L3301.68,1127.75L3301.56,1128.72L3301.44,1129.7L3301.31,1130.66L3301.18,1131.63L3301.04,1132.6L3300.9,1133.56L3300.74,1134.52L3300.59,1135.49L3300.42,1136.45L3300.26,1137.4L3300.08,1138.36L3299.9,1139.31L3299.71,1140.27L3299.52,1141.21L3299.32,1142.16L3299.12,1143.11L3298.91,1144.06L3298.69,1145L3298.47,1145.94L3298.24,1146.88L3298.01,1147.82L3297.77,1148.75L3297.52,1149.69L3297.27,1150.62L3297.02,1151.55L3296.75,1152.48L3296.49,1153.4L3296.21,1154.33L3295.93,1155.25L3295.65,1156.17L3295.36,1157.08L3295.07,1158L3294.76,1158.91L3294.46,1159.82L3294.15,1160.73L3293.83,1161.63L3293.51,1162.54L3293.18,1163.44L3292.84,1164.34L3292.51,1165.23L3292.16,1166.13L3291.81,1167.02L3291.45,1167.91L3291.09,1168.79L3290.73,1169.68L3290.36,1170.56L3289.98,1171.44L3289.6,1172.32L3289.21,1173.19L3288.82,1174.06L3288.42,1174.93L3288.02,1175.8L3287.61,1176.66L3287.2,1177.52L3286.78,1178.38L3286.36,1179.23L3285.93,1180.09L3285.49,1180.94L3285.06,1181.78L3284.61,1182.63L3284.16,1183.47L3283.71,1184.31L3283.25,1185.14L3282.79,1185.98L3282.32,1186.81L3281.85,1187.63L3281.37,1188.46L3280.88,1189.28L3280.39,1190.1L3279.9,1190.91L3279.4,1191.72L3278.9,1192.53L3278.39,1193.34L3277.88,1194.14L3277.36,1194.94L3276.84,1195.74L3276.31,1196.53L3275.78,1197.32L3275.24,1198.1L3274.7,1198.89L3274.16,1199.67L3273.61,1200.44L3273.05,1201.22L3272.49,1201.99L3271.93,1202.76L3271.36,1203.52L3270.78,1204.28L3270.21,1205.04L3269.62,1205.79L3269.03,1206.54L3268.44,1207.29L3267.85,1208.03L3267.25,1208.77L3266.64,1209.51L3266.03,1210.24L3265.42,1210.97L3264.8,1211.69L3264.18,1212.41L3263.55,1213.13L3262.91,1213.85L3262.28,1214.56L3261.64,1215.27L3261,1215.97L3260.35,1216.67L3259.69,1217.37L3259.03,1218.06L3258.37,1218.75L3257.7,1219.43L3257.04,1220.11L3256.36,1220.79L3255.68,1221.46L3255,1222.13L3254.31,1222.8L3253.62,1223.46L3252.92,1224.11L3252.22,1224.77L3251.52,1225.41L3250.81,1226.06L3250.1,1226.7L3249.39,1227.34L3248.66,1227.97L3247.94,1228.6L3247.21,1229.22L3246.48,1229.84L3245.74,1230.46L3245.01,1231.07L3244.26,1231.68L3243.51,1232.28L3242.76,1232.88L3242.01,1233.48L3241.25,1234.07L3240.48,1234.65L3239.72,1235.24L3238.95,1235.81L3238.17,1236.39L3237.39,1236.95L3236.61,1237.52L3235.83,1238.08L3235.04,1238.63L3234.24,1239.18L3233.45,1239.73L3232.64,1240.27L3231.84,1240.81L3231.03,1241.34L3230.22,1241.87L3229.41,1242.39L3228.59,1242.91L3227.77,1243.42L3226.94,1243.93L3226.11,1244.44L3225.28,1244.94L3224.44,1245.43L3223.6,1245.92L3222.76,1246.41L3221.91,1246.89L3221.06,1247.36L3220.21,1247.83L3219.35,1248.3L3218.49,1248.76L3217.63,1249.21L3216.76,1249.66L3215.89,1250.11L3215.01,1250.55L3214.14,1250.99L3213.26,1251.42L3212.37,1251.84L3211.49,1252.26L3210.6,1252.68L3209.7,1253.09L3208.81,1253.49L3207.91,1253.89L3207.01,1254.29L3206.1,1254.67L3205.19,1255.06L3204.28,1255.44L3203.36,1255.81L3202.44,1256.18L3201.53,1256.54L3200.6,1256.9L3199.67,1257.25L3198.74,1257.6L3197.81,1257.94L3196.87,1258.27L3195.93,1258.6L3194.99,1258.93L3194.05,1259.25L3193.1,1259.56L3192.15,1259.87L3191.2,1260.17L3190.24,1260.46L3189.28,1260.76L3188.32,1261.04L3187.36,1261.32L3186.39,1261.59L3185.42,1261.86L3184.45,1262.12L3183.47,1262.38L3182.49,1262.63L3181.51,1262.87L3180.53,1263.11L3179.54,1263.35L3178.56,1263.57L3177.57,1263.8L3176.57,1264.01L3175.58,1264.22L3174.58,1264.42L3173.58,1264.62L3172.58,1264.81L3171.57,1265L3170.56,1265.17L3169.55,1265.35L3168.54,1265.52L3167.52,1265.68L3166.51,1265.83L3165.49,1265.98L3164.55,1266.11L3163.85,1266.21L3163.09,1266.32L3162.32,1266.42L3161.56,1266.52L3160.79,1266.62L3160.03,1266.71L3159.26,1266.8L3158.5,1266.88L3157.73,1266.96L3156.97,1267.04L3156.21,1267.11L3155.45,1267.18L3154.68,1267.25L3153.92,1267.31L3153.16,1267.37L3152.4,1267.43L3151.64,1267.48L3150.88,1267.53L3150.12,1267.58L3149.36,1267.62L3148.61,1267.65L3147.85,1267.69L3147.09,1267.72L3146.33,1267.75L3145.58,1267.77L3144.82,1267.79L3144.07,1267.81L3143.31,1267.82L3142.56,1267.83L3141.8,1267.83L3141.05,1267.84L3140.3,1267.83L3139.55,1267.83L3138.8,1267.82L3138.05,1267.81L3137.3,1267.79L3136.55,1267.78L3135.8,1267.75L3135.05,1267.73L3134.3,1267.7L3133.56,1267.67L3132.81,1267.63L3132.06,1267.59L3131.32,1267.55L3130.58,1267.5L3129.83,1267.45L3129.09,1267.4L3128.33,1267.34L3126.87,1267.22L3125.39,1267.08L3123.92,1266.93L3122.45,1266.77L3120.98,1266.59L3119.51,1266.4L3118.06,1266.2L3116.6,1265.98L3115.14,1265.75L3113.7,1265.51L3112.25,1265.26L3110.81,1264.99L3109.37,1264.71L3107.94,1264.41L3106.51,1264.11L3105.09,1263.79L3103.66,1263.45L3102.25,1263.11L3100.84,1262.75L3099.43,1262.38L3098.03,1262L3096.63,1261.61L3095.24,1261.2L3093.85,1260.78L3092.47,1260.35L3091.09,1259.91L3089.72,1259.45L3088.35,1258.98L3086.99,1258.51L3085.63,1258.01L3084.28,1257.51L3082.93,1257L3081.59,1256.47L3080.26,1255.93L3078.93,1255.38L3077.6,1254.82L3076.28,1254.25L3074.97,1253.66L3073.67,1253.07L3072.37,1252.46L3071.07,1251.85L3069.78,1251.22L3068.51,1250.58L3067.23,1249.93L3065.96,1249.26L3064.7,1248.59L3063.44,1247.91L3062.19,1247.21L3060.95,1246.51L3059.72,1245.79L3058.49,1245.06L3057.27,1244.33L3056.05,1243.58L3054.85,1242.82L3053.64,1242.05L3052.45,1241.27L3051.27,1240.48L3050.09,1239.68L3048.92,1238.87L3047.75,1238.05L3046.6,1237.22L3045.45,1236.38L3044.31,1235.53L3043.18,1234.66L3042.05,1233.79L3041.1,1233.04L3042.38,1240.07L3041.77,1240.92L1997.07,1376.81ZM2028.43,1343.31L3008.31,1215.85L2999.88,1169.71L3020.2,1161.83L3030.51,1178.3L3031.77,1180.26L3033.07,1182.18L3033.73,1183.14L3034.4,1184.09L3035.08,1185.03L3035.76,1185.96L3037.16,1187.82L3037.87,1188.73L3038.59,1189.64L3040.05,1191.44L3040.8,1192.33L3041.55,1193.21L3042.31,1194.09L3043.08,1194.95L3043.86,1195.82L3044.64,1196.67L3045.43,1197.52L3046.23,1198.36L3047.85,1200.02L3048.67,1200.84L3049.5,1201.65L3051.18,1203.25L3052.03,1204.04L3052.89,1204.82L3053.76,1205.6L3054.63,1206.36L3055.51,1207.12L3056.39,1207.87L3057.29,1208.62L3059.09,1210.08L3060.01,1210.8L3061.85,1212.22L3063.73,1213.6L3064.67,1214.28L3065.62,1214.95L3066.58,1215.62L3068.52,1216.92L3069.49,1217.55L3070.47,1218.18L3071.46,1218.81L3072.46,1219.42L3074.46,1220.62L3075.47,1221.2L3076.49,1221.78L3077.51,1222.35L3078.54,1222.91L3079.57,1223.46L3080.61,1224L3081.66,1224.54L3082.7,1225.06L3084.82,1226.08L3085.88,1226.58L3086.95,1227.06L3088.03,1227.54L3089.1,1228.01L3090.19,1228.47L3091.27,1228.92L3092.37,1229.36L3093.47,1229.79L3094.57,1230.21L3095.67,1230.62L3096.78,1231.03L3097.9,1231.42L3099.02,1231.8L3100.14,1232.17L3101.27,1232.54L3102.4,1232.89L3103.54,1233.23L3105.82,1233.89L3106.97,1234.2L3108.12,1234.5L3109.27,1234.79L3110.43,1235.08L3111.6,1235.35L3112.76,1235.61L3113.93,1235.86L3115.1,1236.1L3116.28,1236.33L3117.46,1236.55L3118.64,1236.76L3119.83,1236.96L3121.01,1237.14L3122.21,1237.32L3123.4,1237.49L3125.8,1237.79L3127,1237.92L3129.42,1238.16L3130.65,1238.26L3131.24,1238.3L3131.85,1238.35L3132.45,1238.39L3133.06,1238.42L3133.67,1238.46L3135.5,1238.55L3136.12,1238.57L3137.95,1238.63L3138.57,1238.64L3139.18,1238.65L3139.8,1238.65L3140.41,1238.66L3141.65,1238.66L3142.27,1238.65L3142.89,1238.65L3143.5,1238.64L3144.12,1238.62L3144.74,1238.61L3145.36,1238.59L3145.98,1238.57L3146.6,1238.54L3147.23,1238.51L3147.85,1238.48L3148.47,1238.45L3149.09,1238.41L3149.72,1238.37L3150.34,1238.33L3150.97,1238.28L3151.59,1238.23L3152.21,1238.18L3152.84,1238.13L3153.47,1238.07L3154.09,1238.01L3154.72,1237.94L3155.35,1237.88L3155.97,1237.81L3156.6,1237.74L3157.23,1237.66L3157.86,1237.58L3158.49,1237.5L3159.12,1237.41L3159.75,1237.33L3160.45,1237.23L3161.37,1237.1L3162.21,1236.97L3163.05,1236.85L3163.88,1236.71L3164.72,1236.58L3165.55,1236.43L3166.37,1236.29L3167.2,1236.13L3168.03,1235.98L3168.85,1235.82L3169.67,1235.65L3170.48,1235.48L3171.3,1235.3L3172.11,1235.12L3172.92,1234.93L3173.73,1234.74L3174.54,1234.55L3175.34,1234.35L3176.14,1234.14L3176.94,1233.93L3177.74,1233.71L3178.54,1233.5L3179.33,1233.27L3180.12,1233.04L3180.91,1232.81L3181.69,1232.57L3182.47,1232.33L3183.26,1232.08L3184.03,1231.83L3184.81,1231.57L3185.58,1231.31L3186.35,1231.05L3187.12,1230.78L3187.89,1230.5L3188.65,1230.22L3189.41,1229.94L3190.17,1229.65L3190.93,1229.36L3191.68,1229.06L3192.43,1228.76L3193.18,1228.46L3193.93,1228.15L3194.67,1227.83L3195.41,1227.51L3196.15,1227.19L3196.89,1226.87L3197.62,1226.53L3198.35,1226.2L3199.08,1225.86L3199.8,1225.52L3200.53,1225.17L3201.24,1224.82L3201.96,1224.46L3202.68,1224.1L3203.39,1223.73L3204.1,1223.37L3204.8,1222.99L3205.51,1222.62L3206.21,1222.24L3206.91,1221.85L3207.6,1221.46L3208.29,1221.07L3208.98,1220.67L3209.67,1220.27L3210.35,1219.87L3211.03,1219.46L3211.71,1219.05L3212.39,1218.63L3213.06,1218.21L3213.73,1217.79L3214.4,1217.36L3215.06,1216.93L3215.72,1216.5L3216.38,1216.06L3217.03,1215.61L3217.68,1215.17L3218.33,1214.72L3218.98,1214.26L3219.62,1213.8L3220.26,1213.34L3220.9,1212.88L3221.53,1212.41L3222.16,1211.94L3222.79,1211.46L3223.41,1210.98L3224.03,1210.5L3224.65,1210.01L3225.26,1209.52L3225.88,1209.03L3226.48,1208.53L3227.09,1208.03L3227.69,1207.53L3228.29,1207.02L3228.88,1206.51L3229.48,1206L3230.06,1205.48L3230.65,1204.96L3231.23,1204.43L3231.81,1203.91L3232.39,1203.38L3232.96,1202.84L3233.53,1202.31L3234.09,1201.77L3234.65,1201.22L3235.21,1200.67L3235.77,1200.12L3236.32,1199.57L3236.87,1199.02L3237.41,1198.45L3237.95,1197.89L3238.49,1197.33L3239.03,1196.76L3239.55,1196.19L3240.08,1195.61L3240.61,1195.03L3241.13,1194.45L3241.64,1193.87L3242.15,1193.28L3242.66,1192.69L3243.17,1192.1L3243.67,1191.51L3244.17,1190.91L3244.66,1190.3L3245.16,1189.7L3245.64,1189.09L3246.13,1188.48L3246.61,1187.87L3247.08,1187.26L3247.55,1186.64L3248.02,1186.02L3248.49,1185.39L3248.95,1184.77L3249.41,1184.14L3249.86,1183.51L3250.31,1182.87L3250.75,1182.23L3251.19,1181.6L3251.63,1180.95L3252.07,1180.31L3252.5,1179.66L3252.92,1179.01L3253.35,1178.36L3253.76,1177.7L3254.18,1177.05L3254.59,1176.39L3254.99,1175.72L3255.4,1175.06L3255.8,1174.39L3256.19,1173.72L3256.58,1173.05L3256.97,1172.38L3257.35,1171.7L3257.72,1171.02L3258.1,1170.34L3258.47,1169.66L3258.83,1168.97L3259.2,1168.29L3259.55,1167.59L3259.91,1166.9L3260.25,1166.21L3260.6,1165.51L3260.94,1164.81L3261.28,1164.11L3261.61,1163.41L3261.94,1162.71L3262.26,1162L3262.58,1161.29L3262.89,1160.58L3263.2,1159.87L3263.51,1159.15L3263.81,1158.43L3264.11,1157.71L3264.41,1156.99L3264.69,1156.27L3264.98,1155.55L3265.26,1154.82L3265.53,1154.09L3265.81,1153.36L3266.07,1152.63L3266.33,1151.89L3266.59,1151.16L3266.85,1150.42L3267.09,1149.68L3267.34,1148.94L3267.58,1148.2L3267.81,1147.45L3268.05,1146.7L3268.27,1145.96L3268.49,1145.21L3268.71,1144.46L3268.92,1143.7L3269.13,1142.95L3269.33,1142.19L3269.53,1141.44L3269.73,1140.68L3269.91,1139.92L3270.1,1139.15L3270.28,1138.39L3270.46,1137.62L3270.63,1136.86L3270.79,1136.09L3270.95,1135.32L3271.11,1134.55L3271.26,1133.78L3271.41,1133.01L3271.55,1132.23L3271.69,1131.45L3271.82,1130.68L3271.95,1129.9L3272.07,1129.12L3272.19,1128.33L3272.3,1127.55L3272.41,1126.77L3272.51,1125.98L3272.61,1125.2L3272.7,1124.41L3272.79,1123.62L3272.87,1122.83L3272.95,1122.04L3273.03,1121.24L3273.1,1120.45L3273.16,1119.65L3273.22,1118.86L3273.27,1118.06L3273.32,1117.26L3273.36,1116.46L3273.4,1115.66L3273.43,1114.86L3273.46,1114.06L3273.48,1113.26L3273.5,1112.45L3273.51,1111.65L3273.52,1110.84L3273.52,1110.04L3273.52,1109.23L3273.51,1108.42L3273.5,1107.61L3273.48,1106.8L3273.46,1105.99L3273.43,1105.17L3273.39,1104.36L3273.35,1103.55L3273.31,1102.73L3273.26,1101.92L3273.2,1101.1L3273.14,1100.28L3273.07,1099.46L3273,1098.64L3272.92,1097.83L3272.84,1097.01L3272.75,1096.18L3272.66,1095.36L3272.56,1094.54L3272.45,1093.72L3272.35,1092.89L3272.23,1092.07L3272.11,1091.25L3271.98,1090.42L3271.85,1089.6L3271.72,1088.79L3271.57,1087.97L3271.43,1087.16L3271.28,1086.35L3271.12,1085.54L3270.96,1084.73L3270.79,1083.93L3270.62,1083.13L3270.44,1082.33L3270.26,1081.53L3270.08,1080.74L3269.89,1079.94L3269.69,1079.15L3269.49,1078.36L3269.29,1077.58L3269.08,1076.79L3268.86,1076.01L3268.64,1075.23L3268.42,1074.45L3268.19,1073.68L3267.95,1072.91L3267.72,1072.13L3267.47,1071.36L3267.22,1070.6L3266.97,1069.84L3266.72,1069.08L3266.45,1068.32L3266.19,1067.56L3265.92,1066.81L3265.64,1066.06L3265.36,1065.31L3265.08,1064.56L3264.79,1063.82L3264.5,1063.08L3264.2,1062.34L3263.9,1061.6L3263.59,1060.87L3263.28,1060.13L3262.96,1059.41L3262.64,1058.68L3262.32,1057.96L3261.99,1057.24L3261.66,1056.52L3261.32,1055.8L3260.98,1055.09L3260.64,1054.38L3260.29,1053.67L3259.93,1052.96L3259.57,1052.26L3259.21,1051.56L3258.85,1050.86L3258.47,1050.17L3258.1,1049.47L3257.72,1048.79L3257.34,1048.1L3256.95,1047.41L3256.56,1046.73L3256.16,1046.05L3255.77,1045.38L3255.36,1044.7L3254.95,1044.03L3254.54,1043.37L3254.13,1042.7L3253.71,1042.04L3253.28,1041.38L3252.86,1040.72L3252.43,1040.07L3251.99,1039.42L3251.55,1038.77L3251.11,1038.13L3250.66,1037.49L3250.21,1036.85L3249.76,1036.21L3249.3,1035.58L3248.84,1034.95L3248.38,1034.32L3247.91,1033.7L3247.43,1033.07L3246.96,1032.46L3246.48,1031.84L3245.99,1031.23L3245.5,1030.62L3245.01,1030.02L3244.52,1029.41L3244.02,1028.81L3243.52,1028.22L3243.01,1027.62L3242.5,1027.03L3241.99,1026.44L3241.47,1025.86L3240.96,1025.28L3240.43,1024.7L3239.91,1024.13L3239.38,1023.56L3238.84,1022.99L3238.31,1022.42L3237.77,1021.86L3237.22,1021.31L3236.68,1020.75L3236.13,1020.2L3235.58,1019.65L3235.02,1019.1L3234.46,1018.56L3233.89,1018.02L3233.33,1017.49L3232.76,1016.96L3232.19,1016.43L3231.61,1015.9L3231.03,1015.38L3230.45,1014.87L3229.87,1014.35L3229.28,1013.84L3228.68,1013.33L3228.09,1012.83L3227.49,1012.33L3226.89,1011.83L3226.29,1011.34L3225.68,1010.85L3225.07,1010.36L3224.46,1009.88L3223.85,1009.4L3223.23,1008.93L3222.6,1008.46L3221.98,1007.99L3221.36,1007.52L3220.72,1007.06L3220.09,1006.61L3219.45,1006.15L3218.82,1005.7L3218.18,1005.26L3217.53,1004.82L3216.89,1004.38L3216.24,1003.94L3215.58,1003.51L3214.93,1003.09L3214.27,1002.66L3213.61,1002.24L3212.95,1001.83L3212.29,1001.42L3211.62,1001.01L3210.95,1000.6L3210.28,1000.2L3209.6,999.808L3208.92,999.414L3208.24,999.027L3207.56,998.642L3206.88,998.262L3206.19,997.887L3205.5,997.513L3204.81,997.145L3204.11,996.781L3203.41,996.421L3202.71,996.064L3202.01,995.712L3201.31,995.364L3200.6,995.02L3199.9,994.681L3199.18,994.345L3198.47,994.013L3197.76,993.686L3197.04,993.362L3196.32,993.043L3195.6,992.728L3194.87,992.417L3194.15,992.111L3193.42,991.808L3192.69,991.51L3191.96,991.217L3191.22,990.927L3190.49,990.642L3189.75,990.36L3189.01,990.083L3188.27,989.811L3187.52,989.544L3186.78,989.28L3186.03,989.02L3185.28,988.765L3184.53,988.514L3183.78,988.268L3183.02,988.026L3182.26,987.789L3181.51,987.556L3180.74,987.328L3179.98,987.104L3179.22,986.884L3178.45,986.669L3177.68,986.459L3176.91,986.252L3176.14,986.051L3175.37,985.854L3174.6,985.662L3173.82,985.474L3173.04,985.29L3172.26,985.112L3171.49,984.938L3170.7,984.768L3169.92,984.604L3169.13,984.443L3168.35,984.288L3167.56,984.137L3166.77,983.991L3165.98,983.849L3165.19,983.713L3164.39,983.581L3163.6,983.454L3162.8,983.331L3162,983.213L3161.2,983.1L3160.4,982.992L3159.6,982.889L3158.8,982.79L3157.99,982.697L3157.19,982.608L3156.38,982.524L3155.57,982.445L3154.76,982.371L3153.95,982.301L3153.14,982.237L3152.33,982.177L3151.51,982.123L3150.7,982.073L3149.88,982.029L3149.07,981.989L3148.25,981.954L3147.43,981.925L3146.61,981.9L3145.79,981.881L3144.97,981.866L3144.14,981.857L3143.32,981.852L3142.49,981.853L3141.66,981.859L3140.84,981.87L3140.01,981.886L3139.18,981.907L3138.35,981.934L3137.52,981.965L3136.69,982.002L3135.86,982.044L3135.02,982.091L3134.19,982.144L3133.35,982.201L3132.52,982.264L3131.68,982.333L3130.84,982.406L3130.01,982.485L3129.17,982.569L3128.33,982.659L3127.49,982.754L3126.65,982.854L3125.81,982.959L3124.97,983.07L3124.14,983.185L3123.48,983.281L3122.81,983.383L3122.14,983.488L3121.46,983.596L3120.8,983.708L3120.13,983.822L3119.46,983.94L3118.8,984.061L3118.13,984.185L3117.47,984.312L3116.81,984.443L3116.15,984.576L3115.49,984.712L3114.83,984.852L3114.18,984.994L3113.52,985.14L3112.87,985.288L3112.22,985.44L3111.57,985.595L3110.92,985.753L3110.28,985.913L3109.63,986.077L3108.99,986.243L3108.35,986.413L3107.71,986.586L3107.07,986.761L3106.43,986.94L3105.8,987.121L3105.16,987.306L3104.53,987.493L3103.9,987.684L3103.27,987.877L3102.64,988.073L3102.02,988.272L3101.39,988.474L3100.77,988.678L3100.15,988.886L3099.53,989.096L3098.91,989.309L3098.29,989.525L3097.68,989.744L3097.06,989.966L3096.45,990.19L3095.84,990.417L3095.23,990.648L3094.62,990.881L3094.02,991.117L3093.41,991.355L3092.81,991.596L3092.21,991.84L3091.61,992.086L3091.01,992.336L3090.42,992.588L3089.83,992.842L3089.23,993.101L3088.64,993.36L3088.06,993.623L3087.47,993.889L3086.88,994.156L3086.3,994.427L3085.72,994.701L3085.14,994.977L3084.56,995.256L3083.98,995.536L3083.41,995.821L3082.83,996.108L3082.26,996.397L3081.69,996.688L3081.12,996.982L3080.56,997.279L3079.99,997.579L3079.43,997.881L3078.87,998.185L3078.31,998.492L3077.75,998.801L3077.2,999.113L3076.64,999.428L3076.09,999.745L3075.54,1000.07L3074.99,1000.39L3074.44,1000.71L3073.9,1001.04L3073.36,1001.37L3072.82,1001.7L3072.28,1002.03L3071.74,1002.37L3071.21,1002.71L3070.67,1003.05L3070.14,1003.39L3069.61,1003.74L3069.08,1004.09L3068.56,1004.44L3068.03,1004.79L3067.51,1005.15L3066.99,1005.51L3066.47,1005.87L3065.96,1006.23L3065.44,1006.6L3064.93,1006.96L3064.42,1007.33L3063.91,1007.7L3063.4,1008.08L3062.9,1008.45L3062.4,1008.83L3061.9,1009.21L3061.4,1009.6L3060.9,1009.98L3060.41,1010.37L3059.91,1010.76L3059.43,1011.15L3058.93,1011.55L3058.45,1011.94L3057.96,1012.34L3057.48,1012.74L3057,1013.14L3056.52,1013.55L3056.05,1013.95L3055.57,1014.37L3055.1,1014.77L3054.63,1015.19L3054.16,1015.6L3053.7,1016.02L3053.23,1016.44L3052.77,1016.86L3052.32,1017.29L3051.86,1017.71L3051.4,1018.14L3050.95,1018.57L3050.5,1019L3050.05,1019.44L3049.6,1019.87L3049.16,1020.31L3048.72,1020.75L3048.28,1021.19L3047.84,1021.64L3047.4,1022.08L3046.97,1022.53L3046.54,1022.98L3046.11,1023.43L3045.68,1023.89L3045.26,1024.34L3044.84,1024.8L3044.42,1025.26L3044,1025.72L3043.58,1026.18L3043.17,1026.65L3042.76,1027.12L3042.35,1027.58L3041.94,1028.05L3041.54,1028.53L3041.14,1029L3040.74,1029.48L3040.34,1029.95L3039.95,1030.43L3039.55,1030.92L3039.16,1031.4L3038.78,1031.88L3038.39,1032.37L3038.01,1032.86L3037.63,1033.35L3037.25,1033.84L3036.87,1034.33L3036.5,1034.83L3036.13,1035.33L3035.76,1035.83L3035.39,1036.33L3035.03,1036.82L3034.66,1037.33L3034.3,1037.84L3033.95,1038.34L3033.59,1038.85L3033.24,1039.36L3032.89,1039.87L3032.55,1040.39L3032.2,1040.9L3031.86,1041.42L3031.52,1041.94L3031.18,1042.46L3030.85,1042.98L3030.52,1043.5L3030.19,1044.02L3029.86,1044.55L3029.53,1045.08L3029.21,1045.61L3028.89,1046.14L3028.57,1046.67L3028.26,1047.2L3027.95,1047.74L3027.64,1048.27L3027.33,1048.81L3027.03,1049.35L3026.73,1049.89L3026.43,1050.43L3026.13,1050.97L3025.84,1051.52L3025.54,1052.07L3025.25,1052.61L3024.97,1053.16L3024.68,1053.71L3024.4,1054.26L3024.13,1054.82L3023.85,1055.37L3023.58,1055.93L3023.31,1056.48L3023.04,1057.04L3022.78,1057.6L3022.51,1058.16L3022.25,1058.72L3021.99,1059.29L3021.74,1059.85L3021.49,1060.42L3021.24,1060.99L3020.99,1061.55L3020.75,1062.12L3020.51,1062.69L3020.27,1063.27L3020.03,1063.84L3019.8,1064.41L3019.57,1064.99L3019.34,1065.57L3019.12,1066.14L3018.9,1066.72L3018.68,1067.3L3018.46,1067.88L3018.25,1068.46L3018.04,1069.05L3017.83,1069.63L3017.63,1070.22L3017.43,1070.8L3017.22,1071.39L3017.03,1071.98L3016.83,1072.57L3016.64,1073.16L3016.46,1073.75L3016.27,1074.35L3016.09,1074.94L3015.91,1075.54L3015.73,1076.13L3015.56,1076.73L3015.39,1077.33L3015.22,1077.93L3015.05,1078.53L3014.89,1079.12L3014.73,1079.73L3014.58,1080.34L3014.42,1080.94L3014.27,1081.54L3014.12,1082.15L3013.98,1082.76L3013.84,1083.36L3013.7,1083.97L3013.56,1084.58L3013.43,1085.19L3013.3,1085.8L3013.17,1086.41L3009.42,1104.9L2987.64,1104.67L2977.27,1047.39L2066.74,1158.21L2028.43,1343.31Z" style="fill:rgb(255,0,0);"/>
                </g>
                <path id="Shine" d="M2076.25,1218.33C2095,1247.5 3025.42,1098.75 3120,1084.16C3198.33,1072.08 3252.08,1170.41 3228.33,1100.83C3195,1002.5 3098.33,1023.33 3082.5,1054.16C3066.67,1085 2082.92,1190 2082.92,1190L2076.25,1218.33" style="fill:black;"/>
                <g id="Flag_x5F_Main_1_">
                    <g id="Flag_x5F_Main_2_">
                        <path id="path3397" d="M3024.58,1234.58C3026.25,1232.91 3049.58,1129.16 2998.75,1031.66L2358.75,1111.66C2390.41,1228.75 2363.33,1321.66 2358.75,1324.58C2369.16,1397.91 2415.83,1893.75 2367.91,1983.75C2384.58,2019.58 3052.08,1994.16 3102.91,1992.91C3117.5,1874.16 3051.25,1362.08 3024.58,1234.58Z" style="fill:black;"/>
                        <path id="path3401" d="M2625.48,2019.49L2617.6,2019.48L2609.78,2019.46L2602.01,2019.43L2594.3,2019.39L2586.66,2019.34L2579.08,2019.28L2571.57,2019.21L2564.14,2019.13L2560.45,2019.08L2556.78,2019.03L2553.13,2018.98L2549.5,2018.92L2545.9,2018.86L2542.31,2018.8L2538.75,2018.74L2535.21,2018.67L2531.69,2018.6L2528.2,2018.52L2524.73,2018.45L2521.28,2018.37L2517.86,2018.28L2514.47,2018.19L2511.09,2018.1L2507.75,2018.01L2504.43,2017.91L2501.14,2017.81L2497.88,2017.71L2494.64,2017.6L2491.43,2017.49L2488.25,2017.37L2485.1,2017.25L2481.98,2017.13L2478.89,2017L2475.82,2016.87L2472.79,2016.74L2469.79,2016.6L2466.83,2016.46L2463.89,2016.31L2460.98,2016.16L2458.11,2016.01L2455.27,2015.85L2452.47,2015.69L2449.7,2015.52L2446.96,2015.35L2444.26,2015.18L2441.59,2015L2438.96,2014.82L2436.36,2014.63L2433.8,2014.44L2431.28,2014.24L2428.79,2014.04L2426.34,2013.84L2423.93,2013.63L2421.55,2013.41L2419.22,2013.2L2416.92,2012.97L2414.66,2012.74L2412.44,2012.51L2410.26,2012.27L2408.11,2012.03L2406.01,2011.78L2403.95,2011.52L2401.92,2011.26L2399.94,2011L2398,2010.72L2396.09,2010.45L2394.23,2010.16L2392.41,2009.87L2390.64,2009.58L2389.74,2009.42L2388.88,2009.27L2388.02,2009.11L2387.17,2008.96L2386.33,2008.8L2385.51,2008.64L2384.69,2008.47L2383.88,2008.31L2383.08,2008.14L2382.29,2007.97L2381.51,2007.8L2380.73,2007.62L2379.97,2007.45L2379.22,2007.27L2378.47,2007.08L2377.73,2006.9L2377.01,2006.71L2376.29,2006.52L2375.57,2006.32L2374.87,2006.12L2374.17,2005.92L2373.48,2005.71L2372.8,2005.5L2372.12,2005.28L2371.45,2005.06L2370.78,2004.83L2370.12,2004.59L2369.47,2004.35L2368.82,2004.1L2368.18,2003.85L2367.53,2003.58L2366.89,2003.31L2366.25,2003.02L2365.62,2002.73L2364.98,2002.42L2364.35,2002.09L2363.71,2001.76L2363.07,2001.4L2362.43,2001.02L2361.79,2000.63L2361.14,2000.21L2360.49,1999.76L2359.84,1999.28L2359.18,1998.76L2358.52,1998.21L2357.85,1997.62L2357.18,1996.98L2356.52,1996.29L2355.85,1995.53L2355.26,1994.79L2354.88,1994.29L2354.57,1993.85L2354.25,1993.37L2353.95,1992.9L2353.64,1992.39L2353.36,1991.87L2353.07,1991.34L2349.26,1983.43L2353.41,1975.54L2353.61,1975.15L2353.81,1974.74L2354.01,1974.32L2354.22,1973.9L2354.42,1973.46L2354.63,1973L2354.84,1972.54L2355.04,1972.06L2355.25,1971.57L2355.46,1971.07L2355.67,1970.56L2355.87,1970.03L2356.08,1969.5L2356.29,1968.95L2356.5,1968.39L2356.7,1967.83L2356.91,1967.25L2357.12,1966.66L2357.32,1966.06L2357.53,1965.44L2357.73,1964.82L2357.93,1964.19L2358.14,1963.55L2358.34,1962.89L2358.54,1962.23L2358.74,1961.55L2358.94,1960.87L2359.14,1960.18L2359.33,1959.47L2359.53,1958.76L2359.72,1958.03L2359.91,1957.3L2360.11,1956.56L2360.3,1955.81L2360.49,1955.04L2360.68,1954.27L2360.86,1953.49L2361.05,1952.7L2361.23,1951.9L2361.42,1951.1L2361.6,1950.28L2361.78,1949.45L2361.96,1948.62L2362.14,1947.78L2362.31,1946.92L2362.49,1946.06L2362.66,1945.19L2362.83,1944.32L2363,1943.43L2363.17,1942.53L2363.34,1941.63L2363.5,1940.72L2363.66,1939.81L2363.99,1937.94L2364.31,1936.04L2364.62,1934.11L2364.92,1932.15L2365.22,1930.16L2365.51,1928.14L2365.8,1926.09L2366.08,1924.01L2366.35,1921.9L2366.62,1919.77L2366.88,1917.6L2367.14,1915.4L2367.39,1913.18L2367.63,1910.93L2367.86,1908.66L2368.09,1906.35L2368.32,1904.02L2368.53,1901.67L2368.74,1899.29L2368.95,1896.88L2369.15,1894.45L2369.34,1892L2369.53,1889.52L2369.7,1887.02L2369.88,1884.49L2370.05,1881.94L2370.21,1879.37L2370.37,1876.78L2370.52,1874.16L2370.66,1871.53L2370.8,1868.87L2370.93,1866.19L2371.06,1863.49L2371.18,1860.77L2371.3,1858.03L2371.41,1855.27L2371.51,1852.49L2371.61,1849.69L2371.7,1846.88L2371.79,1844.04L2371.88,1841.19L2371.95,1838.32L2372.02,1835.43L2372.09,1832.52L2372.15,1829.6L2372.21,1826.66L2372.26,1823.71L2372.3,1820.74L2372.35,1817.75L2372.38,1814.75L2372.41,1811.73L2372.44,1808.7L2372.46,1805.66L2372.47,1802.6L2372.49,1799.53L2372.49,1796.44L2372.49,1793.34L2372.49,1790.23L2372.48,1787.1L2372.47,1783.97L2372.45,1780.82L2372.43,1777.66L2372.41,1774.49L2372.38,1771.31L2372.34,1768.12L2372.3,1764.91L2372.26,1761.7L2372.21,1758.48L2372.16,1755.25L2372.1,1752.01L2372.04,1748.76L2371.98,1745.5L2371.91,1742.24L2371.84,1738.96L2371.76,1735.68L2371.68,1732.39L2371.6,1729.1L2371.51,1725.8L2371.42,1722.49L2371.33,1719.17L2371.23,1715.85L2371.12,1712.53L2371.02,1709.2L2370.91,1705.86L2370.8,1702.52L2370.68,1699.18L2370.56,1695.83L2370.44,1692.48L2370.31,1689.13L2370.05,1682.41L2369.78,1675.68L2369.49,1668.94L2369.19,1662.2L2368.89,1655.46L2368.56,1648.72L2368.23,1641.98L2367.89,1635.25L2367.54,1628.52L2367.18,1621.8L2366.81,1615.1L2366.43,1608.4L2366.04,1601.73L2365.65,1595.08L2365.24,1588.44L2364.83,1581.83L2364.42,1575.25L2363.99,1568.69L2363.56,1562.17L2363.13,1555.68L2362.69,1549.23L2362.24,1542.81L2361.79,1536.43L2361.33,1530.1L2360.87,1523.82L2360.41,1517.58L2359.95,1511.39L2359.48,1505.25L2359.01,1499.17L2358.53,1493.15L2358.06,1487.18L2357.58,1481.28L2357.1,1475.45L2356.62,1469.68L2356.15,1463.98L2355.67,1458.35L2355.19,1452.79L2354.72,1447.31L2354.24,1441.91L2353.77,1436.59L2353.3,1431.36L2352.83,1426.21L2352.36,1421.15L2351.9,1416.18L2351.44,1411.3L2350.98,1406.52L2350.53,1401.84L2350.09,1397.26L2349.64,1392.78L2349.21,1388.4L2348.78,1384.14L2348.36,1379.98L2347.94,1375.94L2347.53,1372.01L2347.12,1368.2L2346.73,1364.51L2346.34,1360.94L2345.97,1357.5L2345.6,1354.18L2345.24,1351L2344.89,1347.94L2344.55,1345.03L2344.22,1342.25L2343.9,1339.61L2343.59,1337.12L2343.3,1334.77L2343.02,1332.57L2342.75,1330.53L2342.49,1328.65L2340.84,1316.79L2345.86,1313.27L2345.88,1313.23L2346.04,1312.75L2346.22,1312.24L2346.4,1311.69L2346.59,1311.11L2346.78,1310.49L2346.98,1309.84L2347.19,1309.15L2347.4,1308.44L2347.61,1307.69L2347.83,1306.91L2348.05,1306.11L2348.27,1305.27L2348.5,1304.4L2348.72,1303.5L2348.95,1302.57L2349.18,1301.62L2349.42,1300.64L2349.65,1299.63L2349.89,1298.59L2350.12,1297.53L2350.36,1296.43L2350.59,1295.32L2350.83,1294.17L2351.06,1293L2351.3,1291.81L2351.53,1290.59L2351.76,1289.34L2351.99,1288.07L2352.22,1286.77L2352.45,1285.45L2352.67,1284.11L2352.89,1282.74L2353.11,1281.35L2353.33,1279.93L2353.54,1278.49L2353.75,1277.03L2353.95,1275.54L2354.15,1274.03L2354.35,1272.5L2354.54,1270.95L2354.73,1269.37L2354.91,1267.78L2355.09,1266.16L2355.26,1264.52L2355.43,1262.85L2355.59,1261.17L2355.74,1259.47L2355.89,1257.74L2356.04,1256L2356.17,1254.23L2356.3,1252.45L2356.42,1250.64L2356.53,1248.82L2356.64,1246.98L2356.74,1245.11L2356.83,1243.23L2356.91,1241.33L2356.98,1239.41L2357.05,1237.47L2357.1,1235.52L2357.15,1233.54L2357.18,1231.55L2357.21,1229.54L2357.23,1227.51L2357.24,1225.47L2357.23,1223.4L2357.22,1221.33L2357.19,1219.23L2357.16,1217.12L2357.11,1214.99L2357.05,1212.85L2356.98,1210.69L2356.89,1208.51L2356.8,1206.32L2356.69,1204.11L2356.57,1201.88L2356.51,1200.77L2356.44,1199.65L2356.37,1198.53L2356.29,1197.4L2356.22,1196.27L2356.14,1195.13L2356.05,1194L2355.96,1192.85L2355.87,1191.71L2355.78,1190.56L2355.68,1189.4L2355.57,1188.25L2355.47,1187.09L2355.36,1185.92L2355.25,1184.76L2355.13,1183.59L2355.01,1182.42L2354.89,1181.24L2354.76,1180.06L2354.63,1178.88L2354.49,1177.69L2354.35,1176.5L2354.21,1175.31L2354.06,1174.11L2353.91,1172.91L2353.76,1171.71L2353.6,1170.5L2353.44,1169.29L2353.27,1168.08L2353.1,1166.87L2352.93,1165.65L2352.75,1164.43L2352.57,1163.2L2352.38,1161.98L2352.19,1160.75L2351.99,1159.51L2351.79,1158.28L2351.59,1157.04L2351.38,1155.8L2351.17,1154.55L2350.95,1153.31L2350.73,1152.06L2350.51,1150.8L2350.28,1149.55L2350.04,1148.29L2349.81,1147.03L2349.56,1145.77L2349.32,1144.5L2349.06,1143.23L2348.81,1141.96L2348.55,1140.68L2348.28,1139.41L2348.01,1138.13L2347.73,1136.85L2347.45,1135.56L2347.17,1134.28L2346.88,1132.99L2346.58,1131.7L2346.28,1130.4L2345.98,1129.11L2345.67,1127.81L2345.36,1126.51L2345.04,1125.2L2344.71,1123.9L2344.39,1122.59L2344.05,1121.28L2343.71,1119.97L2343.37,1118.65L2343.02,1117.34L2338.31,1099.82L2340.07,1097.2L3008.21,1013.69L3014.16,1025.18L3014.78,1026.39L3015.4,1027.61L3016.01,1028.82L3016.61,1030.04L3017.2,1031.26L3017.79,1032.47L3018.37,1033.69L3019.51,1036.13L3020.07,1037.34L3020.62,1038.56L3021.7,1041L3022.23,1042.21L3022.76,1043.43L3023.28,1044.65L3023.79,1045.86L3024.79,1048.3L3025.28,1049.51L3025.77,1050.73L3026.25,1051.94L3026.72,1053.15L3027.18,1054.37L3027.64,1055.58L3028.1,1056.8L3028.55,1058.01L3028.99,1059.22L3029.85,1061.64L3030.69,1064.06L3031.1,1065.26L3031.5,1066.47L3031.9,1067.67L3032.29,1068.88L3032.68,1070.08L3033.06,1071.28L3034.17,1074.88L3034.52,1076.08L3034.88,1077.27L3035.22,1078.47L3035.9,1080.85L3036.23,1082.04L3036.55,1083.23L3036.87,1084.41L3037.18,1085.6L3037.49,1086.78L3038.09,1089.14L3038.67,1091.5L3038.95,1092.67L3039.23,1093.85L3039.5,1095.02L3039.76,1096.19L3040.03,1097.35L3040.28,1098.52L3040.78,1100.84L3041.02,1102L3041.26,1103.15L3041.49,1104.31L3041.72,1105.46L3042.16,1107.76L3042.58,1110.04L3042.98,1112.32L3043.17,1113.45L3043.37,1114.59L3043.55,1115.71L3043.91,1117.97L3044.25,1120.21L3044.73,1123.54L3044.88,1124.65L3045.03,1125.75L3045.17,1126.86L3045.31,1127.95L3045.45,1129.05L3045.71,1131.23L3046.07,1134.47L3046.18,1135.55L3046.29,1136.62L3046.39,1137.69L3046.5,1138.77L3046.69,1140.87L3046.87,1142.98L3047.03,1145.07L3047.18,1147.15L3047.32,1149.21L3047.44,1151.26L3047.55,1153.29L3047.65,1155.3L3047.74,1157.3L3047.82,1159.28L3047.88,1161.24L3047.93,1163.19L3047.97,1165.12L3048,1167.03L3048.02,1168.93L3048.03,1170.8L3048.03,1174.5L3048.01,1176.32L3047.98,1178.11L3047.94,1179.89L3047.9,1181.65L3047.85,1183.39L3047.79,1185.11L3047.72,1186.81L3047.65,1188.48L3047.56,1190.13L3047.48,1191.77L3047.38,1193.38L3047.28,1194.96L3047.17,1196.53L3047.06,1198.07L3046.94,1199.59L3046.82,1201.08L3046.7,1202.55L3046.56,1204L3046.43,1205.42L3046.29,1206.81L3046.14,1208.19L3046,1209.53L3045.85,1210.85L3045.7,1212.15L3045.54,1213.42L3045.39,1214.66L3045.23,1215.87L3045.07,1217.06L3044.9,1218.23L3044.74,1219.36L3044.58,1220.46L3044.41,1221.54L3044.25,1222.59L3044.08,1223.62L3043.92,1224.61L3043.75,1225.57L3043.59,1226.51L3043.42,1227.42L3043.26,1228.29L3043.1,1229.14L3042.94,1229.96L3042.78,1230.75L3042.63,1231.52L3042.47,1232.25L3042.32,1232.95L3042.17,1233.63L3042.02,1234.28L3041.88,1234.9L3041.76,1235.36L3041.88,1235.92L3042.21,1237.57L3042.54,1239.25L3042.88,1240.97L3043.57,1244.49L3044.26,1248.14L3044.97,1251.92L3045.69,1255.82L3046.42,1259.85L3047.16,1263.99L3047.92,1268.25L3048.68,1272.63L3049.46,1277.13L3050.24,1281.73L3051.04,1286.45L3051.84,1291.28L3052.65,1296.21L3053.47,1301.24L3054.3,1306.38L3055.14,1311.62L3055.99,1316.95L3056.84,1322.38L3057.7,1327.9L3058.57,1333.52L3059.44,1339.22L3060.32,1345.01L3061.21,1350.89L3062.1,1356.85L3063,1362.88L3063.9,1369L3064.8,1375.19L3065.71,1381.46L3066.62,1387.79L3067.54,1394.2L3068.46,1400.67L3069.38,1407.21L3070.31,1413.81L3071.23,1420.48L3072.16,1427.2L3073.09,1433.97L3074.02,1440.8L3074.95,1447.68L3075.89,1454.62L3076.82,1461.59L3077.75,1468.62L3078.68,1475.68L3079.61,1482.79L3080.54,1489.94L3081.47,1497.12L3082.39,1504.33L3083.31,1511.58L3084.23,1518.86L3085.15,1526.16L3086.06,1533.49L3086.97,1540.85L3087.88,1548.22L3088.78,1555.61L3089.67,1563.02L3090.56,1570.44L3091.45,1577.88L3092.33,1585.32L3093.2,1592.77L3094.07,1600.23L3094.93,1607.69L3096.63,1622.61L3098.29,1637.51L3099.11,1644.95L3099.93,1652.38L3100.73,1659.8L3101.52,1667.21L3102.3,1674.59L3103.08,1681.96L3103.84,1689.31L3104.59,1696.63L3105.33,1703.93L3106.06,1711.2L3106.77,1718.44L3107.47,1725.65L3108.16,1732.82L3108.84,1739.96L3109.51,1747.06L3110.16,1754.11L3110.8,1761.13L3111.42,1768.09L3112.02,1775.01L3112.62,1781.88L3113.19,1788.7L3113.75,1795.47L3114.3,1802.17L3114.83,1808.83L3115.34,1815.41L3115.83,1821.93L3116.07,1825.18L3116.31,1828.4L3116.54,1831.61L3116.77,1834.79L3116.99,1837.97L3117.21,1841.12L3117.42,1844.25L3117.63,1847.37L3117.84,1850.47L3118.03,1853.55L3118.23,1856.61L3118.42,1859.65L3118.6,1862.68L3118.78,1865.68L3118.96,1868.66L3119.13,1871.63L3119.29,1874.57L3119.45,1877.49L3119.61,1880.39L3119.76,1883.27L3119.9,1886.13L3120.04,1888.96L3120.17,1891.78L3120.3,1894.57L3120.42,1897.34L3120.54,1900.08L3120.65,1902.81L3120.76,1905.51L3120.86,1908.18L3120.95,1910.83L3121.04,1913.46L3121.12,1916.07L3121.2,1918.64L3121.27,1921.2L3121.34,1923.73L3121.4,1926.23L3121.45,1928.71L3121.5,1931.16L3121.54,1933.59L3121.58,1935.99L3121.61,1938.37L3121.63,1940.71L3121.64,1943.03L3121.65,1945.33L3121.66,1947.59L3121.66,1949.83L3121.65,1952.04L3121.63,1954.23L3121.61,1956.38L3121.58,1958.51L3121.54,1960.61L3121.5,1962.68L3121.45,1964.72L3121.39,1966.73L3121.33,1968.72L3121.26,1970.67L3121.18,1972.6L3121.1,1974.49L3121.01,1976.36L3120.91,1978.19L3120.8,1980L3120.68,1981.78L3120.56,1983.53L3120.43,1985.25L3120.29,1986.94L3120.14,1988.6L3119.98,1990.23L3119.82,1991.83L3119.64,1993.41L3117.77,2009.19L3100.56,2009.65L3096.89,2009.76L3092.36,2009.9L3087.01,2010.07L3073.95,2010.49L3057.96,2011.01L3039.29,2011.61L3029.01,2011.93L3018.16,2012.26L3006.74,2012.61L2994.8,2012.97L2982.36,2013.34L2969.45,2013.71L2956.1,2014.09L2942.34,2014.47L2928.2,2014.85L2913.71,2015.22L2906.34,2015.41L2898.89,2015.6L2891.37,2015.78L2883.78,2015.97L2876.12,2016.15L2868.4,2016.33L2860.62,2016.5L2852.78,2016.68L2844.89,2016.85L2836.96,2017.02L2828.98,2017.18L2820.96,2017.34L2812.9,2017.5L2804.8,2017.65L2796.68,2017.8L2788.53,2017.95L2780.36,2018.09L2772.16,2018.22L2763.95,2018.35L2755.73,2018.47L2747.5,2018.59L2739.27,2018.7L2731.03,2018.81L2722.8,2018.9L2714.57,2019L2706.35,2019.08L2698.15,2019.16L2689.96,2019.23L2681.79,2019.29L2673.65,2019.35L2665.53,2019.39L2657.44,2019.43L2649.39,2019.46L2641.38,2019.48L2633.41,2019.49L2625.48,2019.49ZM2625.49,1986.16L2633.38,1986.16L2641.31,1986.15L2649.28,1986.13L2657.3,1986.1L2665.35,1986.06L2673.43,1986.02L2681.55,1985.96L2689.68,1985.9L2697.84,1985.83L2706.02,1985.75L2714.21,1985.67L2722.41,1985.58L2730.61,1985.48L2738.82,1985.38L2747.03,1985.26L2755.24,1985.15L2763.44,1985.02L2771.62,1984.89L2779.79,1984.76L2787.94,1984.62L2796.07,1984.48L2804.18,1984.33L2812.25,1984.18L2820.29,1984.02L2828.29,1983.86L2836.26,1983.69L2844.17,1983.53L2852.04,1983.36L2859.86,1983.18L2867.63,1983.01L2875.33,1982.83L2882.97,1982.64L2890.55,1982.46L2898.06,1982.28L2905.49,1982.09L2912.84,1981.9L2927.31,1981.53L2941.43,1981.15L2955.16,1980.77L2968.49,1980.39L2981.38,1980.02L2993.8,1979.66L3005.72,1979.3L3017.12,1978.95L3027.97,1978.62L3038.23,1978.29L3056.89,1977.7L3072.86,1977.18L3085.93,1976.76L3087.6,1976.71L3087.62,1976.3L3087.71,1974.63L3087.8,1972.92L3087.87,1971.18L3087.95,1969.4L3088.01,1967.59L3088.07,1965.74L3088.12,1963.85L3088.17,1961.93L3088.21,1959.99L3088.24,1958L3088.27,1955.99L3088.29,1953.94L3088.31,1951.86L3088.32,1949.75L3088.32,1947.61L3088.31,1945.43L3088.3,1943.23L3088.29,1941L3088.27,1938.74L3088.24,1936.44L3088.2,1934.12L3088.16,1931.78L3088.12,1929.4L3088.07,1926.99L3088.01,1924.56L3087.94,1922.1L3087.87,1919.61L3087.8,1917.1L3087.72,1914.56L3087.63,1911.99L3087.54,1909.4L3087.44,1906.79L3087.34,1904.14L3087.23,1901.48L3087.11,1898.79L3086.99,1896.07L3086.87,1893.33L3086.74,1890.57L3086.6,1887.78L3086.46,1884.97L3086.31,1882.14L3086.16,1879.29L3086,1876.41L3085.84,1873.51L3085.67,1870.6L3085.5,1867.65L3085.33,1864.69L3085.14,1861.71L3084.95,1858.71L3084.76,1855.69L3084.57,1852.64L3084.37,1849.58L3084.16,1846.5L3083.95,1843.4L3083.73,1840.29L3083.51,1837.15L3083.29,1834L3083.06,1830.82L3082.82,1827.64L3082.59,1824.43L3082.1,1817.97L3081.59,1811.44L3081.07,1804.85L3080.53,1798.2L3079.97,1791.49L3079.4,1784.73L3078.81,1777.91L3078.21,1771.04L3077.59,1764.12L3076.96,1757.15L3076.31,1750.14L3075.65,1743.09L3074.98,1736L3074.29,1728.87L3073.59,1721.7L3072.88,1714.51L3072.16,1707.28L3071.42,1700.02L3070.67,1692.73L3069.91,1685.42L3069.15,1678.09L3068.37,1670.74L3067.58,1663.37L3066.78,1655.99L3065.97,1648.59L3065.16,1641.18L3064.33,1633.77L3063.5,1626.35L3062.66,1618.92L3061.81,1611.49L3060.95,1604.06L3060.09,1596.64L3059.22,1589.22L3058.34,1581.81L3057.46,1574.4L3056.57,1567.01L3055.68,1559.63L3054.78,1552.27L3053.88,1544.93L3052.98,1537.6L3052.07,1530.3L3051.15,1523.03L3050.24,1515.78L3049.32,1508.56L3048.4,1501.37L3047.47,1494.22L3046.55,1487.11L3045.62,1480.03L3044.7,1472.99L3043.77,1466L3042.84,1459.05L3041.91,1452.14L3040.99,1445.29L3040.06,1438.49L3039.13,1431.75L3038.21,1425.06L3037.29,1418.43L3036.37,1411.86L3035.45,1405.35L3034.53,1398.91L3033.62,1392.54L3032.71,1386.23L3031.81,1380L3030.91,1373.84L3030.01,1367.76L3029.12,1361.76L3028.24,1355.84L3027.36,1350L3026.48,1344.25L3025.62,1338.59L3024.76,1333.02L3023.9,1327.54L3023.06,1322.15L3022.22,1316.86L3021.39,1311.67L3020.57,1306.59L3019.75,1301.61L3018.95,1296.73L3018.16,1291.96L3017.37,1287.3L3016.6,1282.76L3015.83,1278.33L3015.08,1274.03L3014.34,1269.84L3013.61,1265.77L3012.9,1261.83L3012.19,1258.02L3011.5,1254.34L3010.83,1250.79L3010.16,1247.38L3009.84,1245.73L3009.51,1244.11L3009.2,1242.53L3008.88,1240.98L3008.57,1239.47L3006.61,1230.02L3009.61,1226.48L3009.64,1226.31L3009.75,1225.82L3009.87,1225.3L3009.98,1224.74L3010.11,1224.15L3010.23,1223.52L3010.36,1222.86L3010.49,1222.16L3010.62,1221.44L3010.76,1220.68L3010.9,1219.89L3011.04,1219.08L3011.18,1218.23L3011.32,1217.35L3011.46,1216.44L3011.61,1215.51L3011.75,1214.54L3011.89,1213.55L3012.03,1212.53L3012.18,1211.49L3012.32,1210.41L3012.46,1209.31L3012.59,1208.19L3012.73,1207.04L3012.86,1205.86L3012.99,1204.66L3013.12,1203.43L3013.24,1202.18L3013.37,1200.91L3013.49,1199.61L3013.6,1198.29L3013.71,1196.94L3013.82,1195.58L3013.92,1194.19L3014.01,1192.78L3014.1,1191.34L3014.19,1189.89L3014.27,1188.41L3014.34,1186.92L3014.41,1185.4L3014.47,1183.87L3014.53,1182.31L3014.57,1180.74L3014.61,1179.14L3014.64,1177.53L3014.67,1175.9L3014.69,1174.25L3014.69,1172.59L3014.69,1170.9L3014.68,1169.2L3014.67,1167.49L3014.64,1165.75L3014.6,1164L3014.55,1162.24L3014.49,1160.45L3014.43,1158.66L3014.35,1156.85L3014.26,1155.02L3014.16,1153.18L3014.04,1151.33L3013.92,1149.46L3013.78,1147.58L3013.64,1145.69L3013.47,1143.79L3013.3,1141.86L3013.21,1140.9L3013.11,1139.94L3013.02,1138.97L3012.91,1138L3012.81,1137.02L3012.7,1136.04L3012.59,1135.07L3012.47,1134.08L3012.35,1133.1L3012.23,1132.11L3012.11,1131.12L3011.98,1130.12L3011.84,1129.13L3011.71,1128.13L3011.57,1127.13L3011.42,1126.12L3011.27,1125.12L3011.12,1124.11L3010.97,1123.1L3010.81,1122.09L3010.64,1121.08L3010.48,1120.06L3010.3,1119.04L3010.13,1118.02L3009.95,1117L3009.77,1115.97L3009.58,1114.94L3009.39,1113.92L3009.19,1112.88L3008.99,1111.85L3008.79,1110.82L3008.58,1109.78L3008.37,1108.75L3008.15,1107.7L3007.93,1106.66L3007.71,1105.62L3007.48,1104.58L3007.24,1103.53L3007,1102.48L3006.76,1101.43L3006.51,1100.38L3006.26,1099.33L3006.01,1098.28L3005.74,1097.23L3005.48,1096.17L3005.21,1095.11L3004.93,1094.06L3004.65,1093L3004.37,1091.94L3004.08,1090.88L3003.78,1089.81L3003.49,1088.75L3003.18,1087.68L3002.87,1086.62L3002.56,1085.56L3002.24,1084.49L3001.92,1083.42L3001.59,1082.35L3001.25,1081.28L3000.91,1080.21L3000.57,1079.14L3000.22,1078.07L2999.87,1077L2999.51,1075.92L2999.14,1074.85L2998.77,1073.78L2998.4,1072.7L2998.02,1071.63L2997.63,1070.56L2997.24,1069.48L2996.84,1068.4L2996.44,1067.33L2996.03,1066.25L2995.62,1065.18L2995.2,1064.1L2994.78,1063.02L2994.35,1061.95L2993.91,1060.87L2993.47,1059.79L2993.02,1058.72L2992.57,1057.64L2992.11,1056.56L2991.65,1055.49L2991.18,1054.41L2990.7,1053.34L2990.22,1052.26L2989.73,1051.18L2989.24,1050.11L2989.04,1049.68L2379.44,1125.88L2379.69,1127.02L2380,1128.41L2380.3,1129.8L2380.6,1131.18L2381.18,1133.94L2381.46,1135.31L2381.74,1136.69L2382.01,1138.05L2382.28,1139.42L2382.54,1140.79L2382.8,1142.15L2383.05,1143.5L2383.3,1144.86L2383.78,1147.56L2384.01,1148.91L2384.47,1151.59L2384.69,1152.92L2384.9,1154.26L2385.32,1156.92L2385.72,1159.56L2385.91,1160.88L2386.1,1162.19L2386.28,1163.51L2386.46,1164.81L2386.64,1166.12L2386.81,1167.42L2386.97,1168.72L2387.14,1170.01L2387.3,1171.3L2387.6,1173.88L2387.74,1175.16L2387.89,1176.43L2388.02,1177.71L2388.16,1178.98L2388.29,1180.24L2388.41,1181.51L2388.53,1182.77L2388.77,1185.27L2388.88,1186.52L2388.98,1187.77L2389.09,1189.01L2389.19,1190.25L2389.37,1192.71L2389.46,1193.93L2389.54,1195.16L2389.62,1196.37L2389.7,1197.59L2389.78,1198.8L2389.85,1200.02L2389.98,1202.41L2390.09,1204.79L2390.19,1207.16L2390.28,1209.51L2390.36,1211.84L2390.42,1214.16L2390.48,1216.46L2390.51,1218.75L2390.54,1221.01L2390.56,1223.26L2390.56,1225.49L2390.55,1227.71L2390.54,1229.9L2390.51,1232.08L2390.47,1234.24L2390.42,1236.38L2390.36,1238.5L2390.29,1240.6L2390.21,1242.68L2390.12,1244.75L2390.02,1246.79L2389.92,1248.81L2389.8,1250.82L2389.68,1252.8L2389.55,1254.76L2389.41,1256.71L2389.26,1258.63L2389.1,1260.53L2388.94,1262.41L2388.77,1264.27L2388.6,1266.11L2388.41,1267.93L2388.23,1269.72L2388.03,1271.49L2387.83,1273.25L2387.62,1274.97L2387.41,1276.68L2387.2,1278.36L2386.97,1280.03L2386.75,1281.66L2386.52,1283.28L2386.28,1284.87L2386.05,1286.44L2385.8,1287.99L2385.56,1289.51L2385.31,1291L2385.05,1292.48L2384.8,1293.93L2384.54,1295.35L2384.28,1296.76L2384.02,1298.13L2383.76,1299.48L2383.49,1300.81L2383.22,1302.12L2382.95,1303.39L2382.68,1304.64L2382.41,1305.87L2382.14,1307.07L2381.87,1308.25L2381.59,1309.4L2381.32,1310.53L2381.05,1311.63L2380.77,1312.7L2380.5,1313.75L2380.23,1314.78L2379.95,1315.78L2379.68,1316.75L2379.41,1317.69L2379.14,1318.62L2378.88,1319.52L2378.61,1320.39L2378.34,1321.24L2378.07,1322.06L2377.81,1322.86L2377.54,1323.64L2377.28,1324.4L2377.01,1325.14L2376.74,1325.86L2376.47,1326.56L2376.2,1327.25L2375.99,1327.74L2376.06,1328.28L2376.36,1330.58L2376.66,1333.01L2376.98,1335.59L2377.31,1338.3L2377.64,1341.14L2377.99,1344.12L2378.35,1347.23L2378.71,1350.47L2379.09,1353.84L2379.47,1357.33L2379.87,1360.94L2380.26,1364.68L2380.67,1368.53L2381.09,1372.5L2381.51,1376.59L2381.93,1380.78L2382.37,1385.09L2382.81,1389.5L2383.25,1394.01L2383.7,1398.63L2384.16,1403.35L2384.62,1408.16L2385.08,1413.08L2385.54,1418.08L2386.01,1423.17L2386.49,1428.36L2386.96,1433.62L2387.44,1438.98L2387.91,1444.41L2388.39,1449.92L2388.87,1455.51L2389.36,1461.18L2389.84,1466.91L2390.32,1472.72L2390.8,1478.59L2391.28,1484.52L2391.75,1490.52L2392.23,1496.58L2392.7,1502.7L2393.18,1508.87L2393.64,1515.1L2394.11,1521.37L2394.57,1527.7L2395.03,1534.07L2395.48,1540.48L2395.93,1546.94L2396.38,1553.43L2396.82,1559.96L2397.25,1566.53L2397.68,1573.12L2398.1,1579.75L2398.51,1586.4L2398.91,1593.08L2399.31,1599.78L2399.7,1606.5L2400.08,1613.24L2400.46,1619.99L2400.82,1626.76L2401.52,1640.32L2401.85,1647.12L2402.18,1653.91L2402.49,1660.71L2402.79,1667.51L2403.08,1674.3L2403.62,1687.86L2403.74,1691.25L2403.87,1694.63L2404.11,1701.39L2404.33,1708.13L2404.43,1711.49L2404.54,1714.85L2404.64,1718.21L2404.73,1721.56L2404.83,1724.9L2404.91,1728.24L2405,1731.57L2405.16,1738.21L2405.23,1741.53L2405.3,1744.83L2405.36,1748.13L2405.42,1751.42L2405.48,1754.7L2405.58,1761.24L2405.66,1767.74L2405.7,1770.97L2405.73,1774.2L2405.76,1777.42L2405.8,1783.82L2405.81,1787L2405.82,1790.17L2405.82,1796.49L2405.81,1799.62L2405.8,1802.75L2405.78,1805.86L2405.76,1808.96L2405.74,1812.05L2405.7,1815.12L2405.67,1818.18L2405.63,1821.23L2405.58,1824.26L2405.53,1827.27L2405.47,1830.27L2405.41,1833.26L2405.34,1836.23L2405.27,1839.18L2405.19,1842.12L2405.1,1845.04L2405.01,1847.95L2404.92,1850.84L2404.82,1853.71L2404.71,1856.57L2404.6,1859.4L2404.48,1862.22L2404.35,1865.02L2404.22,1867.8L2404.08,1870.57L2403.94,1873.31L2403.79,1876.04L2403.64,1878.74L2403.47,1881.43L2403.3,1884.1L2403.13,1886.74L2402.95,1889.37L2402.76,1891.97L2402.57,1894.55L2402.37,1897.12L2402.16,1899.66L2401.94,1902.17L2401.72,1904.67L2401.49,1907.15L2401.26,1909.6L2401.02,1912.03L2400.77,1914.43L2400.51,1916.82L2400.25,1919.18L2399.98,1921.52L2399.7,1923.83L2399.41,1926.12L2399.12,1928.38L2398.82,1930.62L2398.51,1932.84L2398.19,1935.03L2397.87,1937.19L2397.53,1939.34L2397.19,1941.45L2396.84,1943.54L2396.49,1945.6L2396.3,1946.63L2396.12,1947.65L2395.93,1948.66L2395.74,1949.66L2395.55,1950.66L2395.36,1951.65L2395.16,1952.63L2394.96,1953.61L2394.76,1954.58L2394.56,1955.55L2394.35,1956.51L2394.14,1957.46L2393.93,1958.4L2393.72,1959.34L2393.51,1960.27L2393.29,1961.2L2393.07,1962.12L2392.84,1963.03L2392.62,1963.93L2392.39,1964.84L2392.16,1965.73L2391.93,1966.61L2391.69,1967.49L2391.45,1968.37L2391.21,1969.23L2390.96,1970.09L2390.72,1970.95L2390.46,1971.79L2390.21,1972.63L2389.95,1973.47L2389.69,1974.29L2389.43,1975.12L2389.34,1975.4L2389.37,1975.4L2389.99,1975.54L2390.62,1975.67L2391.27,1975.8L2391.93,1975.93L2392.61,1976.07L2394.01,1976.33L2394.73,1976.46L2396.21,1976.72L2397.76,1976.98L2399.36,1977.23L2401.01,1977.48L2402.71,1977.73L2404.46,1977.98L2406.26,1978.22L2408.11,1978.45L2410.01,1978.69L2411.95,1978.92L2413.95,1979.15L2415.99,1979.37L2418.07,1979.59L2420.21,1979.81L2422.38,1980.02L2424.6,1980.23L2426.86,1980.43L2429.17,1980.63L2431.51,1980.83L2433.9,1981.02L2436.33,1981.21L2438.8,1981.39L2441.3,1981.57L2443.85,1981.75L2446.43,1981.92L2449.06,1982.09L2451.72,1982.26L2454.42,1982.42L2457.15,1982.58L2459.92,1982.73L2462.72,1982.88L2465.57,1983.03L2468.44,1983.17L2471.35,1983.31L2474.29,1983.44L2477.26,1983.57L2480.27,1983.7L2483.31,1983.83L2486.38,1983.95L2489.48,1984.06L2492.61,1984.18L2495.77,1984.29L2498.96,1984.39L2502.18,1984.5L2505.43,1984.6L2508.7,1984.69L2512.01,1984.79L2515.34,1984.88L2518.69,1984.96L2522.08,1985.05L2525.48,1985.13L2528.92,1985.2L2532.38,1985.28L2535.86,1985.35L2539.36,1985.41L2542.89,1985.48L2546.45,1985.54L2550.02,1985.6L2553.62,1985.65L2557.24,1985.7L2560.87,1985.75L2564.53,1985.8L2571.91,1985.88L2579.37,1985.95L2586.89,1986.02L2594.49,1986.07L2602.15,1986.1L2609.87,1986.13L2617.66,1986.15L2625.49,1986.16Z" style="fill:rgb(255,0,0);"/>
                    </g>
                    <g id="T">
                        <path id="path3407" d="M2891.67,1202.08C2860,1202.08 2493.75,1260.83 2493.75,1260.83C2492.92,1273.33 2505.42,1313.75 2502.92,1425C2582.09,1425 2585,1425.83 2927.92,1391.66C2927.5,1392.08 2923.34,1202.08 2891.67,1202.08Z" style="fill:rgb(255,0,0);"/>
                        <path id="path3413" d="M2787.92,1329.17C2788.34,1327.5 2836.67,1370.84 2817.09,1273.34L2592.09,1318.75C2603.34,1427.92 2621.25,1359.17 2622.09,1351.67L2622.09,1351.25L2622.09,1351.67C2677.5,1827.5 2656.67,1849.17 2653.34,1849.59C2662.92,1850 2846.25,1860.84 2852.92,1835.42C2838.75,1747.5 2798.34,1456.67 2787.92,1329.17ZM2652.92,1850L2652.5,1850L2652.92,1850Z" style="fill:rgb(255,0,0);"/>
                    </g>
                </g>
            </g>
            <g id="Fist_1_" transform="matrix(1,0,0,1,0,-250)">
                <path id="path3421" d="M1669.17,633.75C1585.84,568.333 1399.59,471.25 1399.59,471.25L1187.5,611.25C1187.5,611.25 151.673,679.167 139.583,1171.25C163.75,1655.42 142.917,1432.5 279.583,1723.33C674.583,1775 994.167,1837.5 1147.92,1923.33C1273.33,1993.33 1267.92,2093.33 1267.92,2093.33C1267.92,2093.33 2297.09,2240.42 1967.92,1694.58C2084.17,994.583 2152.5,639.163 1669.17,633.753L1669.17,633.75Z" style="fill:black;"/>
                <g id="Letters">
                    <path id="U" d="M1341.67,920.417C1341.67,920.417 1095.84,1257.5 1205,1550.42C1266.25,1620.83 1338.75,1529.58 1363.75,1516.25C1312.92,1254.58 1540.84,955.417 1566.67,930C1592.5,904.583 1341.67,920.417 1341.67,920.417Z" style="fill:rgb(255,0,0);"/>
                    <path id="F" d="M673.75,1075.42L462.5,1172.09L455.833,1315L625,1257.5L604.167,1365.42L457.917,1414.17L447.917,1774.17L624.167,1789.17C624.167,1789.17 559.583,1516.67 581.667,1455.42C603.75,1393.75 683.75,1142.09 683.75,1142.09L673.75,1075.42Z" style="fill:rgb(255,0,0);"/>
                    <path id="path3434" d="M1918.75,947.5C1827.08,941.25 1749.17,985.833 1745,1047.08C1740.83,1108.33 1811.67,1163.33 1903.33,1169.58C1995,1175.83 2035.83,1321.67 2040,1260C2042.5,1226.25 2082.92,984.583 2082.92,984.583C2082.92,984.583 1960,950 1918.75,947.5ZM1631.25,1098.75C1652.5,943.75 1470,1495.42 1538.33,1401.25C1606.67,1306.67 1720,1535 1852.08,1425.42C1945.83,1283.75 1626.25,1254.58 1631.25,1098.75Z" style="fill:rgb(255,0,0);"/>
                    <path id="path3439" d="M914.583,1008.33C951.25,953.747 822.917,1044.16 822.917,1044.16C822.917,1044.16 818.333,1197.08 795,1228.75C779.583,1233.75 877.083,1204.16 877.083,1204.16C877.083,1204.16 864.583,1082.91 914.583,1008.33ZM887.917,1309.17C887.917,1309.17 873.333,1314.17 765.417,1357.92C715,1480.84 699.583,1535 753.75,1791.25C875,1905 933.333,1826.67 933.333,1826.67L887.917,1309.17Z" style="fill:rgb(255,0,0);"/>
                </g>
                <path id="path3444" d="M2020,1673.75C2004.58,1577.08 2013.33,1619.17 2020,1528.33C2020,1526.67 2020,1525.42 2020,1523.75C2007.5,1277.92 2369.58,602.5 1669.17,610.833C1659.17,610.833 1650,607.083 1642.5,600.833C1554.58,521.25 1455,437.083 1393.33,437.083C1329.17,436.667 1214.58,529.167 1159.17,577.083C1103.75,625.417 687.917,665 458.333,741.25C228.333,817.5 113.333,1094.17 102.5,1193.75C91.667,1293.33 122.917,1658.75 277.5,1750.42C367.917,1831.67 740,1823.33 1096.25,1938.33C1188.33,1967.92 1193.75,2077.92 1281.25,2142.92C1287.08,2147.08 1292.92,2150.83 1300,2152.08C1377.08,2166.67 1509.17,2198.75 1574.17,2205.83C1575.83,2205.83 1577.5,2206.25 1579.17,2205.83C1679.17,2204.17 2287.92,2196.25 2024.58,1685.83C2022.08,1682.08 2020.83,1677.92 2020,1673.75ZM1070.42,1190.42C1090,1107.5 1143.34,1040.42 1173.75,987.086C1192.92,952.92 1152.92,915.836 1120.84,937.92C957.92,1051.67 993.336,1578.34 1038.75,1706.25C1071.67,1798.75 918.753,1821.67 753.753,1791.25C748.336,1790.42 743.336,1788.34 739.17,1785C464.17,1586.25 778.753,1244.59 745.836,1042.09C741.67,1016.67 710.003,1030.84 685.836,1047.92C684.586,1048.75 683.336,1049.59 682.503,1050.42C633.336,1095.84 587.503,1395.84 567.503,1457.09C566.67,1460 565.836,1462.92 565.836,1465.84C541.253,1768.34 452.503,1732.5 342.503,1703.34C136.67,1649.17 302.086,1235 218.753,1283.34C194.586,1297.5 163.336,1280.42 162.92,1252.09C159.17,1001.25 447.086,697.086 804.17,719.17C872.503,723.336 1081.67,666.253 1173.75,630.003C1175.42,629.17 1177.09,628.753 1179.17,628.336C1369.17,585.836 1293.75,330.42 1630,676.253C1637.92,684.17 1649.17,688.336 1660.42,687.503C1745.84,678.753 2065.42,624.17 2045.42,1008.75C2045.42,1010.42 2045,1011.67 2045,1013.34C1985,1370.42 1964.17,1467.92 1960.84,1482.92C1960.42,1484.59 1960,1485.84 1959.59,1487.5C1949.59,1515.42 1847.09,1777.5 1617.92,1604.17C1617.09,1603.34 1616.25,1602.92 1615.42,1602.09C1522.92,1520.42 1538.75,1353.34 1635.42,1105C1652.92,1060.42 1590,1033.34 1570,1076.67C1517.92,1189.59 1480,1454.17 1457.5,1607.09C1456.25,1615.42 1452.5,1622.92 1446.67,1628.75C1007.92,2052.92 1041.25,1313.75 1070.42,1190.42ZM1659.17,2105C1497.09,2092.92 1607.5,2009.58 1628.34,1970.42C1530,1718.75 1424.59,1820.83 1443.75,1828.33C1691.25,2095 1376.25,2159.58 1253.34,2003.75C1165,1713.75 1502.5,1761.67 1565.84,1761.67C1629.17,1761.67 1870,1777.5 1955.42,1670.83C2141.25,2077.5 1803.34,2083.75 1659.17,2105Z" style="fill:rgb(255,0,0);fill-rule:nonzero;"/>
            </g>
        </g>
    </g>
</svg>
