<?xml version="1.0" encoding="UTF-8" standalone="no"?>
<!DOCTYPE svg PUBLIC "-//W3C//DTD SVG 1.1//EN" "http://www.w3.org/Graphics/SVG/1.1/DTD/svg11.dtd">
<svg width="100%" height="100%" viewBox="0 0 196 32" version="1.1" xmlns="http://www.w3.org/2000/svg" xmlns:xlink="http://www.w3.org/1999/xlink" xml:space="preserve" style="fill-rule:evenodd;clip-rule:evenodd;stroke-linejoin:round;stroke-miterlimit:1.41421;">
    <g id="Ebene_x0020_1" transform="matrix(1,0,0,1,-6.6864,-9.2539)">
        <path d="M200.121,10.347L200.121,16.176C197.101,15.035 194.413,14.459 192.06,14.459C190.666,14.459 189.556,14.717 188.721,15.216C187.887,15.719 187.461,16.339 187.461,17.07C187.461,18.043 188.403,18.907 190.3,19.682L195.781,22.349C200.211,24.461 202.41,27.266 202.41,30.789C202.41,33.718 201.244,36.054 198.891,37.783C196.555,39.53 193.41,40.395 189.496,40.395C187.689,40.395 186.067,40.317 184.626,40.154C183.185,39.999 181.529,39.68 179.692,39.224L179.692,33.125C183.06,34.265 186.127,34.841 188.889,34.841C192.184,34.841 193.823,33.886 193.823,31.959C193.823,30.999 193.152,30.225 191.789,29.619L185.701,27.025C183.456,26.009 181.787,24.779 180.694,23.321C179.619,21.85 179.072,20.163 179.072,18.236C179.072,15.539 180.208,13.366 182.454,11.714C184.716,10.075 187.719,9.254 191.453,9.254C192.666,9.254 194.064,9.361 195.613,9.559C197.174,9.77 198.676,10.028 200.121,10.347L200.121,10.347Z" style="fill:rgb(0,153,153);"/>
        <path d="M27.722,10.347L27.722,16.176C24.702,15.035 22.018,14.459 19.665,14.459C18.267,14.459 17.161,14.717 16.327,15.216C15.492,15.719 15.066,16.339 15.066,17.07C15.066,18.043 16.021,18.907 17.918,19.682L23.399,22.349C27.813,24.461 30.015,27.266 30.015,30.789C30.015,33.718 28.845,36.054 26.509,37.783C24.156,39.53 21.029,40.395 17.101,40.395C15.294,40.395 13.668,40.317 12.227,40.154C10.786,39.999 9.147,39.68 7.297,39.224L7.297,33.125C10.679,34.265 13.746,34.841 16.49,34.841C19.785,34.841 21.424,33.886 21.424,31.959C21.424,30.999 20.758,30.225 19.407,29.619L13.32,27.025C11.057,26.009 9.388,24.779 8.313,23.321C7.22,21.85 6.686,20.163 6.686,18.236C6.686,15.539 7.814,13.366 10.072,11.714C12.318,10.075 15.324,9.254 19.058,9.254C20.284,9.254 21.665,9.361 23.231,9.559C24.78,9.77 26.281,10.028 27.722,10.347L27.722,10.347Z" style="fill:rgb(0,153,153);"/>
        <path d="M34.003,9.8L42.929,9.8L42.929,39.848L34.003,39.848L34.003,9.8Z" style="fill:rgb(0,153,153);"/>
        <path d="M71.687,9.8L71.687,15.354L58.424,15.354L58.424,22.017L69.927,22.017L69.927,27.025L58.424,27.025L58.424,34.019L71.958,34.019L71.958,39.848L49.834,39.848L49.834,9.8L71.687,9.8Z" style="fill:rgb(0,153,153);"/>
        <path d="M113.358,9.8L113.358,39.848L105.025,39.848L105.025,20.03L96.379,40.124L91.234,40.124L82.919,20.03L82.919,39.848L76.892,39.848L76.892,9.8L87.788,9.8L95.226,28.195L103.008,9.8L113.358,9.8Z" style="fill:rgb(0,153,153);"/>
        <path d="M142.103,9.8L142.103,15.354L128.913,15.354L128.913,22.017L140.416,22.017L140.416,27.025L128.913,27.025L128.913,34.019L142.374,34.019L142.374,39.848L120.25,39.848L120.25,9.8L142.103,9.8Z" style="fill:rgb(0,153,153);"/>
        <path d="M173.424,9.8L173.424,39.848L163.956,39.848L153.331,20.576L153.331,39.848L147.308,39.848L147.308,9.8L157.052,9.8L167.402,28.741L167.402,9.8L173.424,9.8Z" style="fill:rgb(0,153,153);"/>
    </g>
</svg>
